<svg width="100" height="43" viewBox="0 0 100 43" fill="none" xmlns="http://www.w3.org/2000/svg">
<path fill-rule="evenodd" clip-rule="evenodd" d="M24.5457 0.110751L7.69838 4.57573C6.26458 4.99247 4.83077 6.42126 4.47231 7.79051L0.11114 24.0431C-0.247313 25.4719 0.290367 27.4366 1.30598 28.4484L13.7921 40.7718C14.8077 41.7839 16.7792 42.3198 18.213 41.9624L35.0604 37.4977C36.4344 37.1403 37.928 35.7116 38.2864 34.2827L42.6476 18.0302C43.0059 16.6014 42.4684 14.6368 41.4527 13.6248L28.9666 1.30142C27.9509 0.289352 25.9794 -0.246448 24.5457 0.110751ZM44.3799 18.8637C44.0812 19.2804 43.9021 19.6971 43.8424 20.1139C43.8424 20.352 43.8424 20.4711 43.962 20.6497C44.0812 20.7687 44.2607 20.8283 44.4398 20.8283H47.0087C47.1879 20.8283 47.3671 20.8283 47.4866 20.7687C47.6658 20.7092 47.7853 20.6497 47.9645 20.4711C48.2036 20.2329 48.5023 20.0543 48.7411 19.9353C48.9802 19.8162 49.3386 19.7567 49.8167 19.7567C50.5334 19.7567 51.1907 19.9353 51.6686 20.2329C52.2062 20.5306 52.4452 21.0664 52.4452 21.8403L47.9049 22.6143C46.3517 22.8524 45.1568 23.3882 44.2607 24.1026C43.3645 24.817 42.8866 25.8291 42.8866 27.1389C42.8866 27.7937 43.0658 28.389 43.245 28.9247C43.4242 29.4606 43.7828 29.8774 44.2008 30.2941C44.619 30.6513 45.0969 30.9489 45.7542 31.1872C46.4113 31.3657 47.1283 31.4848 47.9049 31.4848C49.0398 31.4848 49.9959 31.2466 50.7129 30.8895C51.4296 30.5321 51.9674 30.0559 52.3856 29.52V30.4727C52.3856 30.6513 52.5049 30.8298 52.6244 31.0084C52.8036 31.1872 52.983 31.2466 53.1622 31.2466H55.2532C55.492 31.2466 55.6712 31.1872 55.7907 31.0084C55.9699 30.8298 56.0298 30.6513 56.0298 30.4727V22.1975C56.0298 21.245 55.9103 20.352 55.6116 19.6376C55.3129 18.9232 54.8946 18.2684 54.3571 17.7921C53.8193 17.2563 53.1622 16.8991 52.3856 16.661C51.6087 16.4228 50.7725 16.3038 49.8167 16.3038C48.8607 16.3038 48.0244 16.4228 47.3075 16.661C46.5905 16.8991 45.9931 17.1968 45.5152 17.6135C45.0373 17.9707 44.619 18.3874 44.3799 18.8637ZM50.3542 27.8531C49.8167 28.0319 49.2789 28.0913 48.6219 28.0913C48.0841 28.0913 47.6062 27.9722 47.1879 27.7937C46.7697 27.6151 46.5905 27.3769 46.5905 26.9601C46.5905 26.5436 46.7697 26.1862 47.1283 25.9482C47.4866 25.6506 48.0244 25.4719 48.801 25.3528L52.6244 24.6979V24.9956C52.6244 25.3528 52.5648 25.7694 52.3856 26.1268C52.2062 26.4839 51.9674 26.8412 51.6087 27.1389C51.2504 27.4366 50.8321 27.6746 50.3542 27.8531ZM63.9157 31.2466C64.3936 31.3657 64.8717 31.4251 65.4692 31.4251C66.3653 31.4251 67.2015 31.2466 67.9781 31.0084C68.7548 30.5918 69.3522 30.1153 69.89 29.52C70.4278 28.9247 70.8458 28.2105 71.1445 27.4366C71.5031 26.603 71.6224 25.7694 71.6823 24.9361V23.924V22.9119C71.6224 22.0189 71.4432 21.1855 71.1445 20.4115C70.8458 19.6376 70.4278 18.9828 69.89 18.3279C69.3522 17.673 68.7548 17.1968 67.9781 16.8396C67.2015 16.4824 66.3653 16.3038 65.4692 16.3038C64.8717 16.3038 64.3936 16.3633 63.9157 16.4824C63.4378 16.6014 63.0794 16.7205 62.7208 16.8991C62.3625 17.0777 62.0638 17.2563 61.8247 17.4349C61.5859 17.6135 61.3468 17.7921 61.2272 17.9707V17.3158C61.2272 17.1372 61.1676 16.9586 60.9884 16.78C60.8093 16.6014 60.6298 16.5419 60.4506 16.5419H58.3596C58.1208 16.5419 57.9416 16.6014 57.8221 16.78C57.6429 16.9586 57.583 17.1372 57.583 17.3158V35.7711C57.583 35.9496 57.7026 36.1284 57.8221 36.307C58.0013 36.4855 58.1805 36.545 58.3596 36.545H60.4506C60.6897 36.545 60.8689 36.4855 60.9884 36.307C61.1676 36.1284 61.2272 35.9496 61.2272 35.7711V29.7582C61.4067 29.9368 61.5859 30.1153 61.8247 30.2941C62.0638 30.4727 62.3625 30.6512 62.7208 30.8298C63.0794 31.0084 63.4378 31.1275 63.9157 31.2466ZM68.456 23.0905C68.5159 23.5668 68.5159 24.1026 68.456 24.6384C68.3368 25.8291 67.9781 26.8412 67.3211 27.3769C66.664 27.9128 65.8871 28.1508 64.991 28.1508C64.0949 28.1508 63.3183 27.8531 62.7208 27.3175C62.1234 26.7221 61.765 25.9482 61.6455 24.9956C61.5859 24.6979 61.5859 24.3407 61.5859 23.924C61.5859 23.5073 61.5859 23.1501 61.6455 22.8524C61.765 21.8403 62.1234 21.0664 62.7208 20.5306C63.3183 19.9948 64.0352 19.6971 64.991 19.6971C65.947 19.6971 66.664 19.9353 67.3211 20.4711C67.9781 21.0069 68.3368 21.8999 68.456 23.0905ZM77.7758 30.8895C78.1344 31.068 78.4928 31.1872 78.9707 31.306C79.4486 31.3657 79.9267 31.4251 80.5242 31.6037C81.48 31.6037 82.3165 31.4251 83.0332 31.068C83.8098 30.6512 84.4072 30.175 84.945 29.5797C85.4828 28.9844 85.9008 28.2699 86.1995 27.496C86.5581 26.6624 86.6776 25.8291 86.7373 24.9956V23.9835V22.9715C86.6776 22.0785 86.4982 21.245 86.1995 20.4711C85.9008 19.6971 85.4828 18.9828 84.945 18.3874C84.4072 17.7325 83.7501 17.2563 83.0332 16.8991C82.2566 16.5419 81.4203 16.3633 80.5242 16.3633C79.9267 16.3633 79.4486 16.4228 78.9707 16.5419C78.4928 16.661 78.1344 16.78 77.7758 16.9586C77.4175 17.1372 77.1188 17.3158 76.8797 17.4944C76.6409 17.673 76.4018 17.8516 76.2823 18.0302V17.3754C76.2823 17.1968 76.2226 17.0182 76.0434 16.8396C75.8643 16.661 75.6848 16.6014 75.5057 16.6014H73.4147C73.1758 16.6014 72.9967 16.661 72.8771 16.8396C72.6979 17.0182 72.638 17.1968 72.638 17.3754V35.8308C72.638 36.0093 72.7576 36.1879 72.8771 36.3664C73.0563 36.545 73.2355 36.6046 73.4147 36.6046H75.5057C75.7447 36.6046 75.9239 36.545 76.0434 36.3664C76.2226 36.1879 76.2823 36.0093 76.2823 35.8308V29.8177L76.2825 29.8179C76.4617 29.9965 76.6409 30.175 76.8797 30.3536C77.1188 30.5321 77.4175 30.7107 77.7758 30.8895ZM83.2722 23.0905C83.3319 23.5668 83.3319 24.1026 83.2722 24.6384C83.2123 25.8291 82.7943 26.8412 82.137 27.3769C81.4799 27.9128 80.7033 28.1508 79.8072 28.1508C78.9111 28.1508 78.1344 27.8531 77.537 27.3175C76.9396 26.7221 76.581 25.9482 76.4617 24.9956C76.4018 24.6979 76.4018 24.3407 76.4018 23.924C76.4018 23.5073 76.4018 23.1501 76.4617 22.8524C76.581 21.8403 76.9396 21.0664 77.537 20.5306C78.1344 19.9948 78.8512 19.6971 79.8072 19.6971C80.763 19.6971 81.4799 19.9353 82.137 20.4711C82.7943 21.0069 83.1527 21.8999 83.2722 23.0905ZM96.2362 26.4244C96.3558 26.603 96.4154 26.7815 96.4154 26.9601C96.4154 27.1983 96.2959 27.3769 96.1766 27.3175C96.0571 27.496 95.818 27.6151 95.5792 27.6746C95.3401 27.7342 95.0414 27.7937 94.7427 27.8531C94.444 27.9128 94.2051 27.9128 93.9064 27.9128C93.2491 27.9128 92.7712 27.8531 92.4725 27.7342C92.41 27.6968 92.3504 27.6623 92.2933 27.629C92.0766 27.5032 91.8974 27.3992 91.7555 27.2578L91.2776 26.7815C91.1581 26.6624 90.9789 26.603 90.6802 26.603H88.5296C88.3504 26.603 88.1709 26.6624 87.9918 26.8412C87.8722 27.0198 87.8126 27.1983 87.8126 27.3769C87.8126 27.7937 87.9321 28.2699 88.2308 28.7461C88.5296 29.2223 88.8879 29.6391 89.4257 29.9965C89.9632 30.3536 90.5607 30.6513 91.3373 30.8895C92.0542 31.1275 92.9504 31.2466 93.9064 31.2466C94.8622 31.2466 95.6985 31.1275 96.4753 30.8895C97.192 30.6513 97.8494 30.2941 98.3869 29.8774C98.9247 29.4606 99.283 28.9844 99.5817 28.4484C99.8805 27.9128 100 27.3175 100 26.7815C100 25.6506 99.6416 24.6979 98.9843 23.924C98.3273 23.1501 97.192 22.6143 95.5193 22.2571C95.0591 22.1512 94.6411 22.0664 94.2648 21.9899C94.0059 21.9374 93.7671 21.8889 93.5478 21.8403C93.0103 21.7213 92.6517 21.6022 92.353 21.4831C92.0542 21.3641 91.8751 21.245 91.7555 21.126C91.636 20.9474 91.5763 20.7688 91.5763 20.5901C91.5763 20.1734 91.8154 19.8757 92.2334 19.6971C92.7116 19.5185 93.1895 19.459 93.727 19.459C94.2648 19.459 94.683 19.5185 94.9817 19.6376C95.2805 19.7567 95.4596 19.8757 95.6388 19.9948V19.9949C95.818 20.1139 95.9972 20.233 96.1167 20.352C96.2363 20.4711 96.4154 20.5306 96.7141 20.5306H98.8648C99.0442 20.5306 99.2234 20.4711 99.4026 20.2925C99.5221 20.1139 99.5817 19.9353 99.5817 19.7567C99.5221 19.34 99.4026 18.8637 99.1039 18.447C98.8648 17.9707 98.4468 17.6135 97.9689 17.2563C97.4907 16.8991 96.8933 16.6014 96.1766 16.4228C95.4596 16.2442 94.6231 16.1252 93.727 16.1252C92.8308 16.1252 92.0542 16.3038 91.3373 16.5419C90.6206 16.78 90.0231 17.1372 89.5452 17.554C89.0671 17.9707 88.6491 18.447 88.41 18.9828C88.171 19.5185 88.0517 20.1139 88.0517 20.6497C88.0517 21.1855 88.1113 21.7213 88.2308 22.1975C88.3504 22.7333 88.5296 23.0905 88.8879 23.5073C89.2465 23.924 89.6645 24.2217 90.2023 24.5193C90.7398 24.817 91.3972 25.0551 92.2334 25.2337C92.8725 25.4156 93.4069 25.5281 93.8632 25.6242C94.0044 25.6539 94.1378 25.6818 94.2648 25.71C94.8023 25.8291 95.2805 25.9482 95.5792 26.0671C95.8779 26.1862 96.1167 26.3053 96.2362 26.4244ZM6.62293 21.2448C6.26447 22.0187 6.0255 22.9117 6.0255 24.0428C6.0255 25.1144 6.20473 26.0668 6.62293 26.9004C6.98139 27.734 7.45933 28.5079 8.17622 29.1032C8.89314 29.6986 9.66979 30.1748 10.6257 30.5319C11.5815 30.8892 12.5971 31.0678 13.7323 31.0678C14.8674 31.0678 15.883 30.8892 16.8388 30.5319C17.7947 30.1748 18.6311 29.6986 19.2883 29.1032C19.9454 28.5079 20.4831 27.734 20.8416 26.9004C21.2 26.0668 21.3793 25.1144 21.3793 24.0428C21.3793 23.0308 21.2 22.0782 20.8416 21.2448C20.4831 20.4113 19.9454 19.6374 19.2883 19.042C18.6311 18.4467 17.8544 17.9705 16.8986 17.6132C16.0024 17.256 14.9868 17.0774 13.8517 17.0774L17.3168 12.0171C17.3765 12.0171 17.4363 11.9576 17.4363 11.8981C17.496 11.8385 17.496 11.779 17.496 11.6599C17.496 11.4813 17.4363 11.3027 17.257 11.1241C17.0778 10.9456 16.8986 10.886 16.7194 10.886H14.2102C13.9115 10.886 13.7323 10.9456 13.6128 11.0646L13.6128 11.0646C13.4933 11.1837 13.3738 11.3027 13.3141 11.4218L7.93725 19.042C7.45933 19.7564 6.98139 20.4708 6.62293 21.2448ZM16.4804 21.6615C17.1376 22.3164 17.496 23.1498 17.496 24.1024C17.496 25.0549 17.1376 25.8883 16.4804 26.6027C15.8232 27.2575 14.8674 27.6149 13.6725 27.6149C12.4777 27.6149 11.5218 27.2575 10.8646 26.6027C10.2075 25.8883 9.849 25.0549 9.849 24.1024C9.849 23.1498 10.2075 22.3164 10.8646 21.6615C11.5218 21.0066 12.4777 20.6495 13.6725 20.6495C14.8674 20.6495 15.8232 21.0066 16.4804 21.6615ZM23.7689 11.0646C23.5897 11.1837 23.53 11.3623 23.53 11.6004L22.7533 21.1257C22.7533 21.3043 22.8131 21.4829 22.9923 21.6615C23.1715 21.8401 23.3507 21.8996 23.53 21.8996H26.1586C26.4573 21.8996 26.6365 21.8401 26.8157 21.7806C26.9352 21.721 27.1743 21.602 27.3535 21.4829C27.5326 21.3638 27.7717 21.2448 28.1301 21.1852C28.4288 21.1257 28.9067 21.0662 29.4445 21.0662C30.5198 21.0662 31.4159 21.3638 32.073 21.9592C32.7303 22.5545 33.0887 23.2689 33.0887 24.1024C33.0887 25.174 32.7303 25.948 32.073 26.5433C31.3563 27.1386 30.5198 27.4363 29.4445 27.4363C29.0262 27.4363 28.608 27.4363 28.19 27.3766C27.7717 27.3172 27.4131 27.1981 27.1144 27.0195C26.8157 26.841 26.517 26.6622 26.2781 26.3645C26.0391 26.0668 25.8599 25.7097 25.7404 25.293C25.6807 25.1144 25.621 24.9358 25.4417 24.8167C25.2625 24.6977 25.0833 24.6381 24.904 24.6381H22.6338C22.4546 24.6381 22.2754 24.7572 22.0961 24.8763C21.9169 24.9953 21.8572 25.174 21.8572 25.4121C21.9169 26.186 22.0961 26.9004 22.3949 27.5552C22.6936 28.2102 23.1715 28.8055 23.7689 29.3412C24.3663 29.8771 25.143 30.2939 26.099 30.5916C27.0548 30.8892 28.1301 31.0678 29.4445 31.0678C30.4602 31.0678 31.4159 31.0081 32.3121 30.7104C33.2082 30.4128 33.9848 29.9962 34.6419 29.4603C35.2992 28.9247 35.7771 28.1505 36.1954 27.3172C36.6134 26.4836 36.7928 25.4121 36.7928 24.2214C36.7928 23.2094 36.6134 22.2568 36.255 21.4234C35.8967 20.5899 35.3589 19.8755 34.7018 19.3397C34.0445 18.8039 33.2679 18.3872 32.3717 18.0895C31.4756 17.7919 30.5198 17.6728 29.4445 17.6728C29.0859 17.6728 28.6679 17.6728 28.19 17.7323C27.7118 17.7323 27.2339 17.8514 26.6964 18.0895L26.9951 14.3985H34.9406C35.1201 14.3985 35.2992 14.3389 35.4784 14.1603C35.6576 14.0413 35.7175 13.8627 35.7175 13.6245V11.6004C35.7175 11.4218 35.6576 11.2432 35.4784 11.0646C35.2992 10.886 35.1201 10.8265 34.9406 10.8265H24.3066C24.1274 10.8265 23.9481 10.886 23.7689 11.0646Z" fill="#2D5FFF"/>
</svg>
