<svg width="86" height="43" viewBox="0 0 86 43" fill="none" xmlns="http://www.w3.org/2000/svg">
<g clip-path="url(#clip0_409_4483)">
<path fill-rule="evenodd" clip-rule="evenodd" d="M41.5585 40.9959L43.9494 34.4562C42.8946 33.4015 41.9101 32.1357 41.1366 30.7997C40.5741 32.5576 39.5896 34.175 38.3239 35.511C36.2846 37.5503 33.4016 38.816 30.3075 38.816C27.1432 38.816 24.3304 37.5503 22.2912 35.511C21.5177 34.7375 20.8145 33.7531 20.2519 32.7686C19.83 34.1047 19.1268 35.3704 18.1424 36.3549C16.6657 37.8316 14.5561 38.816 12.2356 38.816C10.126 38.816 8.15708 38.0425 6.68038 36.7065C6.7507 37.8316 5.90687 38.8863 4.78177 38.8863C3.65667 38.8863 2.6722 38.1128 2.60188 36.9877L1.12519 18.7751C1.05487 17.65 1.8987 16.5953 3.0238 16.5953C4.1489 16.5953 5.13336 17.3688 5.20368 18.4939L5.76623 25.3148C5.90687 25.0335 6.11783 24.7522 6.32878 24.6116C7.80548 23.1349 9.91505 22.1504 12.2356 22.1504C14.5561 22.1504 16.5953 23.0646 18.1424 24.6116C18.494 24.9632 18.7752 25.3148 19.0565 25.7367C19.4081 23.3459 20.6035 21.166 22.2209 19.4783C24.2601 17.4391 27.1432 16.1733 30.2372 16.1733C33.4016 16.1733 36.2143 17.4391 38.2536 19.4783C38.5348 19.7596 38.8161 20.0409 39.0271 20.3222C39.238 18.7751 39.6599 17.2281 40.2928 15.8217C38.3942 14.2044 37.4801 11.5323 38.1832 9.00081C39.1677 5.41455 42.8946 3.23466 46.4809 4.21913C47.9576 4.64104 49.2233 5.48487 50.0671 6.68029C51.3329 6.25837 52.5986 5.90678 54.005 5.76614C56.6771 5.48487 59.2086 5.83646 61.5291 6.68029C62.0917 5.83646 62.9355 5.20359 63.9903 4.78168C66.7327 3.72689 69.8267 5.13327 70.8112 7.87571C71.5144 9.77432 71.0925 11.8136 69.8267 13.2199C71.2331 15.3998 72.2176 17.9313 72.4989 20.6737C72.9911 25.3148 71.5144 29.6746 68.8423 33.0499C66.2405 36.2845 62.3729 38.2535 58.3648 38.9567L43.3868 41.8397C43.2462 41.8397 43.1056 41.91 42.8946 41.91C42.754 41.91 42.543 41.9804 42.4024 41.9804C41.7695 42.1913 41.2773 41.6991 41.5585 40.9959ZM63.709 20.7441C63.7793 22.9943 60.6853 25.6664 58.1538 26.0883C57.8022 27.0728 57.2397 28.0572 56.6771 28.9714C57.8725 28.8307 59.3492 28.6901 58.857 29.6042C58.2944 30.5887 55.4114 31.7138 54.4269 31.5732C53.4424 31.4325 52.458 29.5339 53.0205 28.5495C53.5128 27.776 54.6379 28.6901 55.6926 28.9011C55.9036 28.6198 56.1146 28.2682 56.2552 27.9869C56.5365 27.4244 56.8177 26.8618 57.099 26.0883C54.9191 25.8773 53.0205 23.7678 52.9502 22.2911C52.8799 19.408 63.5684 18.4939 63.709 20.7441ZM61.5291 15.2592C62.0917 15.1889 62.5136 15.6108 62.5839 16.103C62.6542 16.6656 62.2323 17.0875 61.7401 17.1578C61.1775 17.2281 60.7556 16.8062 60.6853 16.314C60.615 15.7514 60.9666 15.3295 61.5291 15.2592ZM49.9265 16.5249C50.489 16.4546 50.911 16.8765 50.9813 17.3688C51.0516 17.9313 50.6297 18.3532 50.1375 18.4235C49.5749 18.4939 49.153 18.0719 49.0827 17.5797C49.0124 17.0875 49.4343 16.5953 49.9265 16.5249ZM15.4702 27.2134C14.6264 26.3696 13.5013 25.8773 12.2356 25.8773C10.9698 25.8773 9.84473 26.3696 9.0009 27.2134C8.15708 28.0572 7.66484 29.1823 7.66484 30.4481C7.66484 31.7138 8.15708 32.8389 9.0009 33.6827C9.84473 34.5266 10.9698 35.0188 12.2356 35.0188C13.5013 35.0188 14.6264 34.5266 15.4702 33.6827C16.3141 32.8389 16.8063 31.7138 16.8063 30.4481C16.8063 29.1823 16.2437 28.0572 15.4702 27.2134ZM35.2298 22.5724C33.9641 21.3066 32.2061 20.5331 30.3075 20.5331C28.4089 20.5331 26.6509 21.3066 25.3852 22.5724C24.1195 23.8381 23.346 25.5961 23.346 27.4947C23.346 29.3933 24.1195 31.1513 25.3852 32.417C26.6509 33.6827 28.4089 34.4562 30.3075 34.4562C32.2061 34.4562 33.9641 33.6827 35.2298 32.417C36.4956 31.1513 37.2691 29.3933 37.2691 27.4947C37.2691 25.5961 36.4253 23.8381 35.2298 22.5724ZM63.4277 13.0793C61.0369 11.1104 57.8022 10.0556 54.4972 10.4072C51.1922 10.7588 48.3092 12.4464 46.3402 14.8373C44.3713 17.2281 43.3165 20.4628 43.6681 23.7678C44.0197 27.0728 45.7074 29.9558 48.0982 31.9248C48.4498 32.206 48.8717 32.4873 49.2233 32.7686L47.5357 36.8471C51.2626 36.0736 57.5913 35.0188 60.8259 33.5421C62.5136 32.7686 63.9903 31.5732 65.1857 30.1668C67.1546 27.776 68.2094 24.5413 67.8578 21.2363C67.5062 17.9313 65.8889 15.0482 63.4277 13.0793Z" fill="#3A3228"/>
<path fill-rule="evenodd" clip-rule="evenodd" d="M75.8037 27.565C75.8037 28.2682 76.2256 28.4088 76.8585 28.4088H78.8274C79.39 28.4088 79.7416 28.0572 79.8822 27.4947L85.9296 1.68766L85.9999 1.33606C86.0703 0.914151 86.0703 0.562557 85.9296 0.3516C85.7187 0.0703247 85.2968 -0.0703131 84.7342 5.82449e-06L78.2649 0.632876C77.4914 0.703195 77.1398 1.05479 77.0694 1.8283L75.8037 27.565Z" fill="#3A3228"/>
<path fill-rule="evenodd" clip-rule="evenodd" d="M77.2103 30.1668C77.7728 30.2371 78.3354 30.3778 78.8276 30.7294C79.3198 31.081 79.7418 31.5029 80.023 32.0654C80.3043 32.628 80.3746 33.1905 80.3746 33.7531C80.3043 34.3156 80.1637 34.8782 79.8121 35.3704C79.4605 35.8626 79.0386 36.2846 78.476 36.4955C77.9135 36.7768 77.3509 36.8471 76.7884 36.8471C76.2258 36.7768 75.6633 36.6361 75.171 36.2845C74.6788 35.933 74.2569 35.511 74.0459 34.9485C73.7647 34.3859 73.6943 33.8234 73.6943 33.2608C73.7647 32.628 73.9053 32.1357 74.2569 31.6435C74.6085 31.1513 75.0304 30.7294 75.5929 30.5184C76.0852 30.2371 76.6477 30.1668 77.2103 30.1668ZM77.2103 31.081C76.7884 31.081 76.3665 31.1513 75.9445 31.2919C75.5226 31.5029 75.2413 31.7841 74.9601 32.1357C74.7491 32.4873 74.5382 32.9092 74.5382 33.3312C74.5382 33.7531 74.6085 34.175 74.7491 34.5969C74.9601 35.0188 75.2413 35.3001 75.5929 35.5814C75.9445 35.7923 76.3664 35.933 76.7884 36.0033C77.2103 36.0033 77.6322 35.933 78.0541 35.7923C78.476 35.5814 78.7573 35.3001 79.0386 34.9485C79.2495 34.5969 79.3902 34.175 79.4605 33.7531C79.4605 33.3312 79.3902 32.9092 79.1792 32.4873C78.9682 32.0654 78.687 31.7841 78.3354 31.5029C78.0541 31.2216 77.6322 31.081 77.2103 31.081Z" fill="#3A3228"/>
<path fill-rule="evenodd" clip-rule="evenodd" d="M5.55523 9.42272C5.90683 9.63368 6.1881 9.84464 6.39906 10.1962C6.68034 10.5478 6.82097 10.9697 6.82097 11.3917C6.82097 11.7432 6.82097 12.0948 6.75066 12.4464C6.68034 12.798 6.5397 13.0793 6.32874 13.2903C6.11779 13.5012 5.90683 13.7122 5.55523 13.8528C5.27396 13.9935 4.92236 14.0638 4.50045 14.0638L1.75801 14.2747C0.984506 14.345 0.632912 13.9935 0.562593 13.2199L4.19226e-05 7.1022C-0.070277 6.32869 0.281317 5.90678 0.984506 5.90678L3.16439 5.69582C3.65662 5.6255 4.00822 5.6255 4.35981 5.76614C4.71141 5.83646 4.99268 5.9771 5.27396 6.11774C5.55523 6.32869 5.69587 6.53965 5.83651 6.82092C5.97715 7.1022 6.04747 7.45379 6.11779 7.80539C6.1881 8.43826 5.97715 9.00081 5.55523 9.42272ZM2.10961 9.07113L3.44567 8.93049C3.79726 8.93049 4.00822 8.78985 4.14886 8.64922C4.28949 8.50858 4.35981 8.29762 4.28949 8.08666C4.28949 7.87571 4.14886 7.66475 4.00822 7.52411C3.79726 7.38348 3.58631 7.38348 3.30503 7.38348L1.96897 7.52411L2.10961 9.07113ZM2.39088 12.5168L3.9379 12.3761C4.21918 12.3761 4.50045 12.2355 4.64109 12.0948C4.78173 11.9542 4.85205 11.6729 4.85205 11.3917C4.85205 11.1104 4.71141 10.8994 4.57077 10.7588C4.35981 10.6181 4.14886 10.5478 3.86758 10.5478L2.32057 10.6885L2.39088 12.5168ZM13.22 10.4072C13.2903 10.8291 13.22 11.1807 13.1497 11.6026C13.0794 11.9542 12.9387 12.3058 12.7278 12.5871C12.5168 12.8683 12.2355 13.1496 11.9543 13.2903C11.6027 13.5012 11.2511 13.5715 10.8292 13.6419C10.3369 13.7122 9.84469 13.5715 9.42277 13.3606C9.00086 13.1496 8.64927 12.798 8.36799 12.3761C8.08671 11.9542 7.94608 11.462 7.87576 10.8994L7.6648 8.50858C7.6648 8.2273 7.6648 8.01635 7.80544 7.80539C7.94608 7.59443 8.15703 7.52411 8.36799 7.52411C8.64927 7.52411 8.86022 7.59443 9.00086 7.73507C9.1415 7.87571 9.28214 8.08666 9.28214 8.36794L9.49309 10.8994C9.56341 11.251 9.63373 11.462 9.84469 11.6729C10.0556 11.8839 10.2666 11.9542 10.6182 11.8839C10.9698 11.8839 11.1807 11.7432 11.3214 11.462C11.462 11.1807 11.5323 10.8291 11.462 10.3369L11.2511 8.15698C11.2511 7.94603 11.2511 7.80539 11.3214 7.66475C11.3917 7.52411 11.462 7.38348 11.6027 7.31316C11.7433 7.24284 11.8839 7.17252 12.0246 7.17252C12.3058 7.17252 12.5168 7.24284 12.6574 7.38348C12.7981 7.52411 12.9387 7.73507 12.9387 8.01635L13.22 10.4072ZM18.1423 9.84464C18.072 9.42272 18.0017 9.07113 17.7907 8.78985C17.6501 8.50858 17.3688 8.43826 16.9469 8.43826C16.6656 8.43826 16.4547 8.5789 16.2437 8.78985C16.0327 9.00081 15.9624 9.28209 16.0327 9.56336L16.2437 12.0948C16.2437 12.3761 16.1734 12.5871 16.0327 12.798C15.8921 13.009 15.6812 13.0793 15.4702 13.0793C15.1889 13.0793 14.978 13.009 14.8373 12.8683C14.6967 12.7277 14.5561 12.5168 14.5561 12.2355L14.3451 9.84464C14.2748 9.28209 14.3451 8.78985 14.5561 8.29762C14.767 7.80539 15.0483 7.45379 15.3999 7.17252C15.8218 6.89124 16.2437 6.68029 16.7359 6.68029C17.1579 6.60997 17.5094 6.68029 17.861 6.82092C18.2126 6.96156 18.4939 7.17252 18.7752 7.38348C19.0565 7.66475 19.2674 7.94603 19.4081 8.29762C19.5487 8.64922 19.6893 9.00081 19.6893 9.42272L19.9003 11.7432C19.9003 12.0245 19.9003 12.2355 19.7596 12.4464C19.619 12.6574 19.4081 12.7277 19.1268 12.7277C18.9158 12.7277 18.7049 12.6574 18.4939 12.5168C18.3533 12.3761 18.2126 12.1652 18.2126 11.8839L18.1423 9.84464ZM24.8929 6.60997C24.6117 6.46933 24.3304 6.32869 24.0491 6.25837C23.7678 6.18805 23.4866 6.18805 23.2053 6.18805C22.713 6.25837 22.2911 6.39901 21.9395 6.68029C21.5879 6.96156 21.3067 7.38348 21.0957 7.80539C20.8848 8.29762 20.8144 8.78985 20.8848 9.28208C20.9551 9.77432 21.0957 10.2665 21.377 10.6885C21.6583 11.1104 22.0099 11.3917 22.4318 11.6026C22.8537 11.8136 23.3459 11.8839 23.8381 11.8839C24.1194 11.8839 24.4007 11.8136 24.6117 11.6729C24.8226 11.6026 25.1039 11.3917 25.3148 11.251C25.3852 11.6729 25.3148 12.0245 25.1039 12.3058C24.8929 12.5871 24.6117 12.798 24.2601 12.798C24.0491 12.798 23.9085 12.798 23.7678 12.798C23.6272 12.7277 23.4162 12.6574 23.2053 12.5871C22.924 12.4464 22.6427 12.3761 22.3614 12.3761C22.1505 12.3761 21.9395 12.4464 21.8692 12.5871C21.7286 12.7277 21.6583 12.9387 21.7286 13.2199C21.7286 13.5012 21.8692 13.7122 22.1505 13.9231C22.4318 14.1341 22.713 14.2747 23.135 14.345C23.5569 14.4154 23.9788 14.4857 24.4007 14.4154C24.8929 14.345 25.3148 14.2044 25.7368 13.9935C26.1587 13.7825 26.4399 13.5012 26.7212 13.0793C27.0025 12.6574 27.1431 11.9542 27.0728 11.0401L26.7212 6.89124C26.7212 6.53965 26.5806 6.32869 26.4399 6.18805C26.2993 6.04742 26.0884 5.9771 25.8071 5.9771C25.2445 6.11774 24.9632 6.25837 24.8929 6.60997ZM23.6975 7.80539C24.0491 7.80539 24.4007 7.87571 24.6117 8.08666C24.8226 8.29762 24.9632 8.5789 25.0336 8.93049C25.0336 9.28209 24.9632 9.56336 24.8226 9.84464C24.6117 10.1259 24.3304 10.2666 23.9788 10.2666C23.6272 10.2666 23.3459 10.1962 23.0646 9.98527C22.8537 9.77432 22.713 9.49304 22.713 9.14145C22.713 8.78985 22.7834 8.50858 22.924 8.2273C23.0646 8.01635 23.3459 7.87571 23.6975 7.80539ZM29.7449 10.9697C29.7449 11.251 29.7449 11.462 29.6043 11.6729C29.4637 11.8839 29.2527 11.9542 29.0417 11.9542C28.7605 11.9542 28.6198 11.8839 28.4089 11.7432C28.2682 11.6026 28.1276 11.3917 28.1276 11.1104L27.565 4.43008C27.565 4.14881 27.6354 3.93785 27.776 3.72689C27.9166 3.51594 28.1276 3.44562 28.3386 3.44562C28.6198 3.44562 28.8308 3.51594 28.9714 3.65657C29.1121 3.79721 29.2527 4.00817 29.2527 4.35976L29.7449 10.9697ZM33.5422 8.86017L34.5266 5.83646C34.6673 5.41455 34.8782 5.13327 35.2298 5.13327C35.7924 5.06295 36.0736 5.34423 36.0736 5.90678C36.0736 6.11774 36.0736 6.32869 36.0033 6.60997L34.0344 11.9542C33.8234 12.4464 33.6125 12.8684 33.3312 13.1496C33.0499 13.4309 32.6983 13.6419 32.2764 13.6419C31.9951 13.6419 31.7842 13.6419 31.5029 13.5715C31.2919 13.5012 31.081 13.3606 30.9404 13.2199C30.7997 13.0793 30.7294 12.8683 30.6591 12.6574C30.6591 12.3761 30.7294 12.1652 30.87 12.0245C31.0107 11.8839 31.2216 11.8136 31.4326 11.7432C31.5732 11.7432 31.7139 11.7432 31.8545 11.7432C31.9951 11.7432 32.1358 11.8136 32.1358 11.8136C32.2764 11.8136 32.3467 11.7432 32.417 11.6026C32.4874 11.5323 32.5577 11.462 32.5577 11.3917C32.5577 11.3213 32.628 11.1104 32.6983 10.8291L30.4481 7.03188C30.3075 6.82092 30.2372 6.60997 30.2372 6.39901C30.2372 6.18805 30.2372 5.9771 30.3778 5.76614C30.5184 5.6255 30.7294 5.48487 30.9404 5.48487C31.1513 5.48487 31.2919 5.48487 31.4326 5.6255C31.5732 5.69582 31.7139 5.90678 31.8545 6.18805L33.5422 8.86017Z" fill="#3A3228"/>
<path fill-rule="evenodd" clip-rule="evenodd" d="M76.6475 34.175L76.5772 34.8078C76.5772 34.9485 76.5069 35.0188 76.4366 35.1594C76.3663 35.2298 76.2256 35.3001 76.1553 35.2298C76.0147 35.2298 75.9443 35.1594 75.874 35.0891C75.8037 35.0188 75.8037 34.8782 75.8037 34.7375L76.085 32.1357C76.1553 31.8544 76.2959 31.7138 76.5772 31.7138L77.2101 31.7841C77.421 31.7841 77.632 31.8544 77.7023 31.8544C77.843 31.9248 77.9133 31.9248 78.0539 32.0654C78.1946 32.1357 78.2649 32.2764 78.3352 32.417C78.4055 32.5576 78.4758 32.6983 78.4758 32.8389C78.4758 32.9795 78.5461 33.1202 78.4758 33.2608C78.4758 33.4718 78.3352 33.6827 78.1945 33.8937C78.0539 34.0343 77.843 34.175 77.5617 34.2453L78.1242 34.7375C78.2649 34.8782 78.2649 35.0188 78.2649 35.1594C78.2649 35.2298 78.1946 35.3704 78.1242 35.4407C78.0539 35.511 77.9836 35.511 77.843 35.511C77.7726 35.511 77.7023 35.4407 77.5617 35.3704L76.6475 34.175ZM76.7179 33.4718H76.9991C77.2101 33.4718 77.3507 33.4718 77.4914 33.4015C77.632 33.3311 77.7023 33.1905 77.7023 32.9795C77.7023 32.8389 77.7023 32.7686 77.632 32.6983C77.5617 32.628 77.4914 32.5576 77.3507 32.4873C77.2804 32.417 77.1398 32.417 76.9991 32.417H76.7179V33.4718Z" fill="#3A3228"/>
<path fill-rule="evenodd" clip-rule="evenodd" d="M41.9806 41.0662L44.3011 34.5266C41.5586 31.9248 39.7304 28.4088 39.2381 24.3303C38.8865 21.3066 39.3084 18.4236 40.4335 15.8218C38.5349 14.2044 37.5505 11.6026 38.2537 9.00083C39.1678 5.41457 42.8244 3.23468 46.4107 4.14883C47.9577 4.50042 49.1531 5.41457 50.0672 6.53967C51.333 6.04744 52.5987 5.76616 54.0051 5.62552C56.6772 5.34425 59.2087 5.62552 61.5995 6.46935C62.0918 5.62552 62.9356 4.92233 63.9904 4.50042C66.7328 3.44564 69.8268 4.7817 70.8816 7.52413C71.6551 9.42274 71.2332 11.462 69.9675 12.8684C71.4442 15.0483 72.4286 17.5797 72.7099 20.3222C73.2725 24.9632 71.8661 29.3933 69.194 32.7686C66.5922 36.0736 62.795 38.0425 58.7868 38.8864L43.8089 41.9804C43.6682 41.9804 43.5276 42.0507 43.3166 42.0507C43.176 42.0507 42.965 42.121 42.8244 42.121C42.2618 42.2617 41.7696 41.7694 41.9806 41.0662Z" fill="#3A3228"/>
<path fill-rule="evenodd" clip-rule="evenodd" d="M63.4979 12.7981C61.0368 10.8994 57.8724 9.84466 54.4971 10.2666C51.1921 10.6885 48.3091 12.3761 46.3401 14.8373C44.4415 17.2985 43.3867 20.4628 43.8087 23.8381C44.2306 27.1431 45.9182 30.0262 48.3794 31.9951C48.731 32.2764 49.1529 32.5577 49.5748 32.8389L47.8871 36.9174C51.6141 36.0736 57.9428 34.9485 61.1774 33.4015C62.8651 32.5577 64.3418 31.3622 65.4669 29.9559C67.3655 27.4947 68.4203 24.3303 67.9984 20.955C67.7171 17.5797 65.9591 14.6967 63.4979 12.7981Z" fill="white"/>
<path fill-rule="evenodd" clip-rule="evenodd" d="M63.8496 20.4628C63.9902 22.713 60.8962 25.4555 58.3647 25.9477C58.0131 26.9322 57.5209 27.9166 56.9583 28.8308C58.1538 28.6198 59.6305 28.5495 59.1382 29.4636C58.5757 30.4481 55.6926 31.6435 54.7081 31.5029C53.7237 31.3622 52.6689 29.5339 53.2314 28.5495C53.7237 27.7057 54.8488 28.6198 55.9739 28.9011C56.1848 28.5495 56.3958 28.2682 56.5364 27.9869C56.8177 27.4244 57.099 26.8618 57.3803 26.0883C55.2004 25.8774 53.3018 23.8381 53.2314 22.3614C53.0205 19.3377 63.709 18.2126 63.8496 20.4628ZM61.5994 14.9779C62.1619 14.9076 62.5839 15.2592 62.6542 15.8218C62.7245 16.3843 62.3729 16.8062 61.8104 16.8766C61.2478 16.9469 60.8259 16.5953 60.7556 16.0327C60.6853 15.5405 61.0368 15.0483 61.5994 14.9779ZM50.0671 16.4546C50.6296 16.3843 51.0516 16.7359 51.1219 17.2985C51.1922 17.861 50.8406 18.2829 50.2781 18.3532C49.7155 18.4236 49.2936 18.072 49.2233 17.5094C49.153 17.0172 49.5045 16.525 50.0671 16.4546Z" fill="#3A3228"/>
</g>
<defs>
<clipPath id="clip0_409_4483">
<rect width="86" height="42.1913" fill="white"/>
</clipPath>
</defs>
</svg>
