<svg width="24" height="24" viewBox="0 0 24 24" fill="none" xmlns="http://www.w3.org/2000/svg">
<path fill-rule="evenodd" clip-rule="evenodd" d="M3.14645 3.14645C3.34171 2.95118 3.65829 2.95118 3.85355 3.14645L12 11.2929L20.1464 3.14645C20.3417 2.95118 20.6583 2.95118 20.8536 3.14645C21.0488 3.34171 21.0488 3.65829 20.8536 3.85355L12.7071 12L20.8536 20.1464C21.0488 20.3417 21.0488 20.6583 20.8536 20.8536C20.6583 21.0488 20.3417 21.0488 20.1464 20.8536L12 12.7071L3.85355 20.8536C3.65829 21.0488 3.34171 21.0488 3.14645 20.8536C2.95118 20.6583 2.95118 20.3417 3.14645 20.1464L11.2929 12L3.14645 3.85355C2.95118 3.65829 2.95118 3.34171 3.14645 3.14645Z" fill="black"/>
</svg>
