<svg width="120" height="24" viewBox="0 0 120 24" fill="none" xmlns="http://www.w3.org/2000/svg">
<g clip-path="url(#clip0_409_4472)">
<path d="M64.8146 11.2245C64.1207 10.2019 63.2929 9.654 61.8442 9.654C60.1763 9.654 59.0685 10.7132 59.0685 12.381C59.0685 14.0367 60.2128 15.108 61.8442 15.108C63.2807 15.108 64.145 14.5602 64.7903 13.5619L66.7384 14.6576C65.7886 16.4472 64.1329 17.3359 61.8807 17.3359C58.8493 17.3359 56.585 15.4489 56.585 12.3932C56.585 9.36186 58.898 7.45053 61.8807 7.45053C64.1694 7.45053 65.7886 8.3514 66.7504 10.1288L64.8146 11.2245Z" fill="black"/>
<path d="M73.1054 17.323C70.2934 17.323 67.8101 15.3265 67.8101 12.3803C67.8101 9.43419 70.2934 7.43765 73.1054 7.43765C75.9174 7.43765 78.4014 9.43419 78.4014 12.3803C78.4014 15.3265 75.9174 17.323 73.1054 17.323ZM73.1054 15.1925C74.6514 15.1925 75.8814 14.0969 75.8814 12.3803C75.8814 10.6638 74.6514 9.56812 73.1054 9.56812C71.5347 9.56812 70.3054 10.6638 70.3054 12.3803C70.3054 14.1091 71.5347 15.1925 73.1054 15.1925Z" fill="black"/>
<path d="M79.7529 7.65674H88.5302V9.92114H82.2602V11.3699H87.7756V13.6342H82.2482V17.0795H79.7402V7.65674H79.7529Z" fill="black"/>
<path d="M89.9788 7.65674H98.7561V9.92114H92.4868V11.3699H98.0015V13.6342H92.4748V17.0795H89.9668V7.65674H89.9788Z" fill="black"/>
<path d="M108.873 7.65674V9.92114H102.701V11.1629H108.24V13.4273H102.701V14.7542H109.092V17.0673H100.193V7.65674H108.873Z" fill="black"/>
<path d="M119.781 7.65674V9.92114H113.609V11.1629H119.148V13.4273H113.609V14.7542H120V17.0673H111.101V7.65674H119.781Z" fill="black"/>
<path d="M51.0094 0.595856H0V23.9579H51.0094V0.595856Z" fill="black"/>
<path d="M15.2053 11.1629C14.5113 10.1403 13.6835 9.59254 12.2348 9.59254C10.5669 9.59254 9.45912 10.6517 9.45912 12.3195C9.45912 13.9752 10.6035 15.0465 12.2348 15.0465C13.6713 15.0465 14.5357 14.4987 15.1809 13.5004L17.1288 14.5961C16.1792 16.3857 14.5235 17.2743 12.2713 17.2743C9.23999 17.2743 6.97559 15.3874 6.97559 12.3317C6.97559 9.30034 9.28865 7.38901 12.2713 7.38901C14.5601 7.38901 16.1792 8.28987 17.1409 10.0673L15.2053 11.1629Z" fill="white"/>
<path d="M29.0475 7.59586V9.84806H25.3831V17.0308H22.8631V9.84806H19.1987V7.59586H29.0475Z" fill="white"/>
<path d="M34.5987 7.59586L37.5327 13.8899H37.6057L40.771 7.59586H43.7902V17.0308H41.2823V11.0898L38.531 17.0308H36.5222L33.8318 11.102V17.0308H31.397V7.59586H34.5987Z" fill="white"/>
</g>
<defs>
<clipPath id="clip0_409_4472">
<rect width="120" height="24" fill="white"/>
</clipPath>
</defs>
</svg>
