<svg width="100" height="23" viewBox="0 0 100 23" fill="none" xmlns="http://www.w3.org/2000/svg">
<path d="M14.0081 18.7992H11.1118L14.5873 22.2747C18.8527 21.9588 22.2755 18.378 22.2755 14.0073V11.111H18.7473V14.0073C18.8 16.6929 16.641 18.7992 14.0081 18.7992Z" fill="#5082E6"/>
<path d="M3.47551 14.0599V11.1637L0 14.6392C0.315955 18.9572 3.89678 22.3274 8.26748 22.3274H11.1637V18.7992H8.26748C5.63453 18.7992 3.47551 16.6929 3.47551 14.0599Z" fill="#5AD2FF"/>
<path d="M8.26748 3.52816H11.1637L7.68824 0C3.37019 0.315955 0 3.89678 0 8.26748V11.1637H3.52816V8.26748C3.52816 5.63453 5.63453 3.52816 8.26748 3.52816Z" fill="#E62D32"/>
<path d="M18.7991 8.26748V11.1637L22.2746 7.68824C22.0114 3.37019 18.4305 0 14.0598 0H11.1636V3.52816H14.0598C16.6928 3.52816 18.7991 5.63453 18.7991 8.26748Z" fill="#FABE00"/>
<path d="M46.3397 16.0612V19.1154H34.3335V3.15967H46.0764V6.26656H37.809V9.47877H44.3387V12.533H37.809V16.0612H46.3397Z" fill="#233255"/>
<path d="M49.9736 19.168V3.15967H53.3964V16.0612H60.8214V19.1154H49.9736V19.168Z" fill="#233255"/>
<path d="M78.0419 3.15967H81.0963V19.168H77.6733V8.47823L72.5127 15.008L67.4047 8.47823V19.1154H63.9819V3.15967H67.0888L72.5654 10.1106L78.0419 3.15967Z" fill="#233255"/>
<path d="M88.8358 15.3766L87.4671 19.168H83.8335L90.0999 3.15967H93.7335L99.9999 19.168H96.3663L94.9968 15.3766H88.8358ZM91.8897 7.16177L89.9413 12.4277H93.8382L91.8897 7.16177Z" fill="#233255"/>
</svg>
