<svg width="106" height="33" viewBox="0 0 106 33" fill="none" xmlns="http://www.w3.org/2000/svg">
<g clip-path="url(#clip0_139_888)">
<path d="M16.2588 32.4561C25.1401 32.4561 32.3398 25.2992 32.3398 16.4707C32.3398 7.64224 25.1401 0.485352 16.2588 0.485352C7.37745 0.485352 0.177734 7.64224 0.177734 16.4707C0.177734 25.2992 7.37745 32.4561 16.2588 32.4561Z" fill="#4C7DFE"/>
<path d="M16.2584 29.2585C23.3632 29.2585 29.1227 23.5332 29.1227 16.4707C29.1227 9.40815 23.3632 3.68286 16.2584 3.68286C9.1536 3.68286 3.39404 9.40815 3.39404 16.4707C3.39404 23.5332 9.1536 29.2585 16.2584 29.2585Z" fill="#82A4FE"/>
<path d="M16.2587 26.7019C21.9431 26.7019 26.5512 22.1212 26.5512 16.4707C26.5512 10.8202 21.9431 6.2395 16.2587 6.2395C10.5744 6.2395 5.96631 10.8202 5.96631 16.4707C5.96631 22.1212 10.5744 26.7019 16.2587 26.7019Z" fill="#A8BFFE"/>
<path d="M16.2579 24.6541C20.8046 24.6541 24.4904 20.9903 24.4904 16.4706C24.4904 11.951 20.8046 8.28711 16.2579 8.28711C11.7112 8.28711 8.02539 11.951 8.02539 16.4706C8.02539 20.9903 11.7112 24.6541 16.2579 24.6541Z" fill="#C2D1FE"/>
<path d="M16.2584 23.017C19.8954 23.017 22.8439 20.0861 22.8439 16.4707C22.8439 12.8552 19.8954 9.92432 16.2584 9.92432C12.6213 9.92432 9.67285 12.8552 9.67285 16.4707C9.67285 20.0861 12.6213 23.017 16.2584 23.017Z" fill="#D4E0FE"/>
<path d="M16.2586 21.7087C19.1688 21.7087 21.528 19.3636 21.528 16.4707C21.528 13.5778 19.1688 11.2327 16.2586 11.2327C13.3484 11.2327 10.9893 13.5778 10.9893 16.4707C10.9893 19.3636 13.3484 21.7087 16.2586 21.7087Z" fill="#E0E9FF"/>
<path d="M16.2585 20.6621C18.5871 20.6621 20.4749 18.7855 20.4749 16.4707C20.4749 14.1558 18.5871 12.2793 16.2585 12.2793C13.9298 12.2793 12.042 14.1558 12.042 16.4707C12.042 18.7855 13.9298 20.6621 16.2585 20.6621Z" fill="#EAF0FE"/>
<path d="M43.4043 17.9205H41.2308V22.7048H38.4126V10.7668H41.2236V15.5968H43.4719L47.0267 10.7668H50.0381L45.6767 16.5162L50.3303 22.7072H47.0267L43.4043 17.9205Z" fill="#4C7DFE"/>
<path d="M62.106 11.3935C63.0198 11.8905 63.7734 12.6345 64.2794 13.5396C64.7967 14.5287 65.0668 15.6271 65.0668 16.7419C65.0668 17.8567 64.7967 18.9551 64.2794 19.9443C63.7763 20.8552 63.0223 21.6046 62.106 22.1048C61.1423 22.6212 60.0612 22.8824 58.9666 22.8633C57.3566 22.8633 56.0751 22.3272 55.122 21.255V27.0451H52.311V10.7693H54.9868V12.3345C55.4436 11.7728 56.0359 11.3352 56.7086 11.0622C57.4252 10.7722 58.193 10.6277 58.9666 10.6373C60.061 10.6175 61.1421 10.8779 62.106 11.3935ZM61.2052 19.4425C61.8717 18.756 62.205 17.8542 62.205 16.7371C62.205 15.62 61.8717 14.7182 61.2052 14.0317C60.8753 13.693 60.4778 13.4267 60.0382 13.2498C59.5986 13.0728 59.1267 12.9892 58.6526 13.0042C58.0155 12.9939 57.3871 13.1521 56.8318 13.4627C56.289 13.7691 55.8444 14.2218 55.5495 14.7687C55.2383 15.3783 55.0761 16.0523 55.0761 16.7359C55.0761 17.4195 55.2383 18.0935 55.5495 18.7032C55.8444 19.2507 56.2889 19.7042 56.8318 20.0115C57.3876 20.3208 58.0157 20.479 58.6526 20.47C59.1267 20.485 59.5986 20.4014 60.0382 20.2244C60.4778 20.0475 60.8753 19.7812 61.2052 19.4425Z" fill="#4C7DFE"/>
<path d="M78.8483 10.7669L73.2263 23.6676C72.6999 24.9639 72.0623 25.8769 71.3137 26.4066C70.5134 26.9497 69.5607 27.227 68.5921 27.1988C67.9877 27.1982 67.3874 27.1001 66.8147 26.9083C66.2798 26.7454 65.7859 26.4713 65.3657 26.1041L66.4911 24.0468C66.7726 24.3063 67.1001 24.5114 67.457 24.6518C67.8099 24.7977 68.1881 24.8735 68.5703 24.875C69.0106 24.8925 69.4433 24.7576 69.7947 24.4933C70.1872 24.1443 70.4916 23.7085 70.6834 23.221L70.8863 22.7409L65.6458 10.7573H68.5703L72.3473 19.589L76.1387 10.7669H78.8483Z" fill="#4C7DFE"/>
<path d="M90.0249 13.1386H83.6253V22.7048H80.8047V10.7668H90.0249V13.1386Z" fill="#4C7DFE"/>
<path d="M92.0771 10.7668H94.8881V18.6359L101.524 10.7668H104.079V22.7048H101.268V14.8358L94.6563 22.7048H92.0771V10.7668Z" fill="#4C7DFE"/>
</g>
<defs>
<clipPath id="clip0_139_888">
<rect width="105.333" height="32" fill="white" transform="translate(0 0.470703)"/>
</clipPath>
</defs>
</svg>
