<svg width="117" height="40" viewBox="0 0 117 40" fill="none" xmlns="http://www.w3.org/2000/svg">
<path d="M55.7374 9.06995V18.7555H53.9677V10.6047H48.4797V18.7555H46.71V9.06995H55.7374Z" fill="#4C7DFE"/>
<path d="M60.7182 18.2238C59.9628 17.8147 59.336 17.2057 58.9072 16.4642C58.4788 15.6823 58.2544 14.8061 58.2544 13.9157C58.2544 13.0253 58.4788 12.1492 58.9072 11.3672C59.3329 10.6234 59.9605 10.0136 60.7182 9.60765C61.5233 9.19397 62.4164 8.97809 63.3226 8.97809C64.2289 8.97809 65.1219 9.19397 65.927 9.60765C66.6803 10.0162 67.3041 10.6256 67.7282 11.3672C68.1553 12.1495 68.3791 13.0256 68.3791 13.9157C68.3791 14.8059 68.1553 15.6819 67.7282 16.4642C67.301 17.2035 66.678 17.8121 65.927 18.2238C65.1239 18.6437 64.23 18.8631 63.3226 18.8631C62.4152 18.8631 61.5214 18.6437 60.7182 18.2238ZM65.0087 16.8982C65.5038 16.6132 65.908 16.1951 66.1748 15.6919C66.4527 15.1389 66.5974 14.5291 66.5974 13.9108C66.5974 13.2926 66.4527 12.6828 66.1748 12.1297C65.9093 11.6281 65.5046 11.2128 65.0087 10.9332C64.4918 10.6573 63.9142 10.513 63.3275 10.513C62.7408 10.513 62.1633 10.6573 61.6463 10.9332C61.1476 11.2136 60.7386 11.6284 60.4665 12.1297C60.1828 12.6811 60.0348 13.2915 60.0348 13.9108C60.0348 14.5301 60.1828 15.1406 60.4665 15.6919C60.7399 16.1948 61.1483 16.6124 61.6463 16.8982C62.1612 17.1805 62.7396 17.3285 63.3275 17.3285C63.9155 17.3285 64.4939 17.1805 65.0087 16.8982Z" fill="#4C7DFE"/>
<path d="M82.1614 9.06995V18.7555H80.5549V11.682L76.9172 17.6568H76.1444L72.5519 11.6644V18.7555H70.9336V9.06995H72.7525L76.575 15.6098L80.5077 9.06995H82.1614Z" fill="#4C7DFE"/>
<path d="M87.1591 18.2238C86.4037 17.8147 85.7769 17.2057 85.3481 16.4642C84.9198 15.6823 84.6953 14.8061 84.6953 13.9157C84.6953 13.0253 84.9198 12.1492 85.3481 11.3672C85.7738 10.6234 86.4014 10.0136 87.1591 9.60765C87.9642 9.19397 88.8573 8.97809 89.7635 8.97809C90.6698 8.97809 91.5628 9.19397 92.3679 9.60765C93.1208 10.0168 93.7444 10.626 94.1691 11.3672C94.5963 12.1495 94.82 13.0256 94.82 13.9157C94.82 14.8059 94.5963 15.6819 94.1691 16.4642C93.7413 17.2031 93.1185 17.8115 92.3679 18.2238C91.5648 18.6437 90.671 18.8631 89.7635 18.8631C88.8561 18.8631 87.9623 18.6437 87.1591 18.2238ZM91.4497 16.8982C91.9447 16.6132 92.3489 16.1951 92.6157 15.6919C92.8937 15.1389 93.0384 14.5291 93.0384 13.9108C93.0384 13.2926 92.8937 12.6828 92.6157 12.1297C92.3503 11.6281 91.9455 11.2128 91.4497 10.9332C90.9327 10.6573 90.3551 10.513 89.7684 10.513C89.1817 10.513 88.6042 10.6573 88.0872 10.9332C87.5885 11.2136 87.1795 11.6284 86.9074 12.1297C86.6237 12.6811 86.4758 13.2915 86.4758 13.9108C86.4758 14.5301 86.6237 15.1406 86.9074 15.6919C87.1808 16.1948 87.5893 16.6124 88.0872 16.8982C88.6021 17.1805 89.1805 17.3285 89.7684 17.3285C90.3564 17.3285 90.9348 17.1805 91.4497 16.8982Z" fill="#4C7DFE"/>
<path d="M105.147 9.06995V18.7555H103.378V14.8453C102.396 15.3161 101.322 15.5658 100.232 15.5765C99.0191 15.5765 98.0818 15.2963 97.4198 14.7358C96.7578 14.1754 96.4301 13.3347 96.4366 12.2138V9.06995H98.2063V12.1082C98.2063 12.7788 98.4167 13.2812 98.8395 13.6253C99.2622 13.9694 99.8541 14.1356 100.609 14.1356C101.568 14.1128 102.512 13.8953 103.384 13.4963V9.06995H105.147Z" fill="#4C7DFE"/>
<path d="M115.898 13.1991C116.547 13.7466 116.875 14.5201 116.881 15.5198C116.881 16.5626 116.529 17.3694 115.825 17.9403C115.121 18.5112 114.113 18.7881 112.801 18.7712L108.565 18.7555V9.06995H110.335V12.3408L113.074 12.3584C114.308 12.3702 115.249 12.6504 115.898 13.1991ZM114.455 16.9627C114.866 16.6343 115.07 16.1455 115.07 15.5003C115.07 14.8551 114.873 14.4054 114.48 14.1122C114.087 13.8189 113.471 13.6684 112.651 13.6547L110.335 13.6195V17.4182L112.651 17.4378C113.442 17.4495 114.044 17.2912 114.455 16.9627Z" fill="#4C7DFE"/>
<path d="M55.0773 22.7293V32.411H53.3076V24.2621H49.1232L49.0131 26.4127C48.9753 27.5066 48.859 28.5964 48.6651 29.6739C48.5422 30.4247 48.2534 31.1392 47.8195 31.7658C47.6326 32.0199 47.3854 32.2242 47.1001 32.3606C46.8147 32.497 46.4999 32.5613 46.1836 32.5479C45.8167 32.5408 45.4524 32.4856 45.1001 32.3836L45.2102 30.9036C45.3544 30.9387 45.5022 30.9571 45.6507 30.9584C45.8766 30.9666 46.1002 30.9109 46.2954 30.7977C46.4907 30.6845 46.6497 30.5185 46.7538 30.319C47.0115 29.8493 47.1738 29.3338 47.2316 28.8019C47.305 28.218 47.3706 27.3838 47.4282 26.2993L47.5934 22.7195L55.0773 22.7293Z" fill="#4C7DFE"/>
<path d="M58.4947 22.7293H60.2644V29.7814L66.2361 22.7293H67.8348V32.411H66.0651V25.3589L60.1051 32.411H58.4888L58.4947 22.7293Z" fill="#4C7DFE"/>
<path d="M79.0186 22.7293V32.411H77.2489V28.5008C76.2673 28.9725 75.1929 29.2222 74.1027 29.232C72.8902 29.232 71.9529 28.9518 71.2909 28.3913C70.6289 27.8308 70.3012 26.9908 70.3077 25.8712V22.7293H72.0774V25.7617C72.0774 26.4303 72.2878 26.9347 72.7106 27.2769C73.1333 27.619 73.7252 27.7891 74.4803 27.7891C75.4393 27.7663 76.3835 27.5487 77.2548 27.1498V22.7293H79.0186Z" fill="#4C7DFE"/>
<path d="M82.4356 22.7293H84.2053V26.835H89.7543V22.7293H91.524V32.411H89.7543V28.3581H84.1994V32.4129H82.4297L82.4356 22.7293Z" fill="#4C7DFE"/>
<path d="M96.5107 31.8773C95.7561 31.4677 95.13 30.8588 94.7016 30.1177C94.2733 29.3354 94.0488 28.4589 94.0488 27.5682C94.0488 26.6775 94.2733 25.801 94.7016 25.0188C95.1274 24.2757 95.7541 23.6661 96.5107 23.2592C97.3124 22.832 98.2105 22.6153 99.12 22.6296C100.028 22.6191 100.923 22.8413 101.719 23.2748C102.473 23.6832 103.097 24.2926 103.521 25.0344C103.949 25.8167 104.173 26.6932 104.173 27.5839C104.173 28.4746 103.949 29.3511 103.521 30.1333C103.094 30.8732 102.471 31.482 101.719 31.8929C100.924 32.3269 100.028 32.5472 99.12 32.5322C98.2079 32.5414 97.309 32.3158 96.5107 31.8773ZM100.807 30.5576C101.302 30.2716 101.706 29.8538 101.975 29.3513C102.253 28.7982 102.398 28.1885 102.398 27.5702C102.398 26.9519 102.253 26.3421 101.975 25.7891C101.708 25.2878 101.303 24.8727 100.807 24.5926C100.29 24.3167 99.7126 24.1723 99.1259 24.1723C98.5392 24.1723 97.9616 24.3167 97.4447 24.5926C96.9458 24.8728 96.5368 25.2876 96.2649 25.7891C95.9811 26.3404 95.8332 26.9509 95.8332 27.5702C95.8332 28.1895 95.9811 28.8 96.2649 29.3513C96.5387 29.8539 96.947 30.2714 97.4447 30.5576C97.96 30.8384 98.5382 30.9856 99.1259 30.9856C99.7135 30.9856 100.292 30.8384 100.807 30.5576Z" fill="#4C7DFE"/>
<path d="M24.52 37.5578C23.2399 36.6448 22.5045 35.1413 22.357 33.6026C22.2882 33.0826 22.2882 32.5351 22.0562 32.0522C21.7032 31.4032 21.1135 30.9135 20.4084 30.6836C19.4252 30.3728 18.3575 30.7267 17.3527 30.4764C13.0071 29.534 12.6532 23.4478 16.9162 22.0792C17.7435 21.8101 18.6326 21.7918 19.4705 22.0264C20.3084 22.261 21.0572 22.7381 21.6216 23.397C22.9784 24.9044 22.2745 26.5857 23.9812 27.7412C24.2605 27.9398 24.5788 28.0773 24.9154 28.1447C25.2519 28.2121 25.599 28.2079 25.9338 28.1322C26.683 28.0032 27.4361 27.8331 28.201 27.9074C29.2337 27.983 30.2227 28.3522 31.0502 28.971C33.4393 30.754 33.8935 34.3847 31.9646 36.6682C30.2244 38.8638 26.7498 39.2763 24.5239 37.5754L24.52 37.5578Z" fill="url(#paint0_linear_273_151)"/>
<path d="M23.6038 21.3461C21.3444 20.132 20.3042 17.2404 21.1694 14.8512C21.7593 13.2011 22.9883 12.1825 24.5653 11.508C25.3518 11.1541 25.5072 10.5852 25.3145 9.79924C25.171 9.20941 25.0867 8.6069 25.0628 8.00054C25.0486 7.02048 25.2641 6.05058 25.692 5.16759C27.4027 1.69924 32.1023 0.610243 35.1462 3.03262C38.1979 5.40416 38.3611 10.1316 35.3782 12.6283C34.8975 13.0335 34.3596 13.3661 33.7815 13.6156C32.9596 14.0066 31.5183 14.0809 31.5989 15.2833C31.6185 15.8953 31.707 16.5092 31.6559 17.1211C31.5808 18.0842 31.2406 19.0081 30.6727 19.7918C29.1508 21.9815 25.9044 22.7049 23.6038 21.3461Z" fill="url(#paint1_linear_273_151)"/>
<path d="M8.56134 37.0417C10.9939 37.0417 12.9659 35.081 12.9659 32.6623C12.9659 30.2436 10.9939 28.2828 8.56134 28.2828C6.12874 28.2828 4.15674 30.2436 4.15674 32.6623C4.15674 35.081 6.12874 37.0417 8.56134 37.0417Z" fill="#4C7DFE"/>
<path d="M16.1823 4.58498C17.2422 4.58498 18.1015 3.73066 18.1015 2.6768C18.1015 1.62294 17.2422 0.768616 16.1823 0.768616C15.1224 0.768616 14.2632 1.62294 14.2632 2.6768C14.2632 3.73066 15.1224 4.58498 16.1823 4.58498Z" fill="#4C7DFE"/>
<path d="M34.7547 28.3101C36.704 28.3101 38.2843 26.7389 38.2843 24.8007C38.2843 22.8625 36.704 21.2913 34.7547 21.2913C32.8053 21.2913 31.2251 22.8625 31.2251 24.8007C31.2251 26.7389 32.8053 28.3101 34.7547 28.3101Z" fill="#4C7DFE"/>
<path d="M1.61163 20.7283C-0.411728 17.6236 0.587172 13.3184 3.77461 11.4103C5.31046 10.4943 7.14855 10.2202 8.88708 10.6478C9.34113 10.7639 9.78295 10.923 10.2065 11.1229C10.8515 11.4063 11.5456 11.9538 12.2771 11.637C13.1068 11.3281 13.1068 10.3193 13.4215 9.62524C13.6774 8.99866 14.1032 8.45499 14.6515 8.05475C15.1998 7.65451 15.849 7.41341 16.5269 7.35829C17.2048 7.30317 17.8848 7.43618 18.4912 7.74253C19.0976 8.04888 19.6066 8.51654 19.9615 9.09346C21.1846 11.0916 20.2053 13.8209 17.9362 14.5111C16.1468 15.0976 14.967 13.8893 14.2001 14.5111C13.5591 15.078 13.9819 16.0106 13.972 16.736C14.0151 17.5406 13.9132 18.3463 13.6712 19.1153C13.3721 20.0781 12.856 20.9603 12.1622 21.6948C11.4685 22.4293 10.6153 22.9968 9.66772 23.354C8.22421 23.8912 6.63983 23.9241 5.17503 23.4473C3.71023 22.9704 2.45218 22.0123 1.6077 20.7302L1.61163 20.7283Z" fill="url(#paint2_linear_273_151)"/>
<defs>
<linearGradient id="paint0_linear_273_151" x1="14.2302" y1="24.3589" x2="32.6257" y2="36.5873" gradientUnits="userSpaceOnUse">
<stop stop-color="#AAC3FF"/>
<stop offset="0.27" stop-color="#87A9FE"/>
<stop offset="1" stop-color="#2963FD"/>
</linearGradient>
<linearGradient id="paint1_linear_273_151" x1="34.9869" y1="2.64746" x2="23.2118" y2="19.7533" gradientUnits="userSpaceOnUse">
<stop stop-color="#AAC3FF"/>
<stop offset="0.27" stop-color="#87A9FE"/>
<stop offset="1" stop-color="#2963FD"/>
</linearGradient>
<linearGradient id="paint2_linear_273_151" x1="18.7522" y1="8.03183" x2="3.22649" y2="20.4493" gradientUnits="userSpaceOnUse">
<stop offset="0.08" stop-color="#AAC3FF"/>
<stop offset="0.23" stop-color="#95B3FF"/>
<stop offset="0.58" stop-color="#6993FE"/>
<stop offset="0.84" stop-color="#4E7EFD"/>
<stop offset="1" stop-color="#4477FD"/>
</linearGradient>
</defs>
</svg>
