<svg width="141" height="48" viewBox="0 0 141 48" fill="none" xmlns="http://www.w3.org/2000/svg">
<g clip-path="url(#clip0_159_1880)">
<path d="M66.8847 10.884V22.5067H64.7611V12.7257H58.1754V22.5067H56.0518V10.884H66.8847Z" fill="#4C7DFE"/>
<path d="M72.8618 21.8686C71.9553 21.3777 71.2032 20.6469 70.6886 19.7571C70.1746 18.8188 69.9053 17.7674 69.9053 16.6989C69.9053 15.6304 70.1746 14.579 70.6886 13.6407C71.1995 12.7481 71.9525 12.0164 72.8618 11.5292C73.828 11.0328 74.8996 10.7737 75.9871 10.7737C77.0746 10.7737 78.1463 11.0328 79.1124 11.5292C80.0164 12.0195 80.7649 12.7507 81.2738 13.6407C81.7864 14.5795 82.0549 15.6307 82.0549 16.6989C82.0549 17.7671 81.7864 18.8183 81.2738 19.7571C80.7612 20.6442 80.0136 21.3746 79.1124 21.8686C78.1486 22.3725 77.076 22.6358 75.9871 22.6358C74.8982 22.6358 73.8256 22.3725 72.8618 21.8686V21.8686ZM78.0105 20.2779C78.6046 19.9359 79.0896 19.4342 79.4097 18.8304C79.7433 18.1667 79.9169 17.435 79.9169 16.693C79.9169 15.9511 79.7433 15.2194 79.4097 14.5557C79.0912 13.9538 78.6055 13.4554 78.0105 13.1199C77.3902 12.7889 76.6971 12.6156 75.993 12.6156C75.289 12.6156 74.5959 12.7889 73.9756 13.1199C73.3771 13.4564 72.8863 13.9541 72.5598 14.5557C72.2193 15.2173 72.0418 15.9499 72.0418 16.693C72.0418 17.4362 72.2193 18.1688 72.5598 18.8304C72.8879 19.4338 73.378 19.935 73.9756 20.2779C74.5934 20.6166 75.2875 20.7942 75.993 20.7942C76.6986 20.7942 77.3926 20.6166 78.0105 20.2779V20.2779Z" fill="#4C7DFE"/>
<path d="M98.5935 10.884V22.5067H96.6657V14.0185L92.3004 21.1882H91.3731L87.0621 13.9973V22.5067H85.1201V10.884H87.3028L91.8898 18.7318L96.609 10.884H98.5935Z" fill="#4C7DFE"/>
<path d="M104.591 21.8686C103.685 21.3777 102.933 20.6469 102.418 19.7571C101.904 18.8188 101.635 17.7674 101.635 16.6989C101.635 15.6304 101.904 14.579 102.418 13.6407C102.929 12.7481 103.682 12.0164 104.591 11.5292C105.557 11.0328 106.629 10.7737 107.717 10.7737C108.804 10.7737 109.876 11.0328 110.842 11.5292C111.745 12.0202 112.494 12.7513 113.003 13.6407C113.516 14.5795 113.784 15.6307 113.784 16.6989C113.784 17.7671 113.516 18.8183 113.003 19.7571C112.49 20.6437 111.743 21.3739 110.842 21.8686C109.878 22.3725 108.806 22.6358 107.717 22.6358C106.628 22.6358 105.555 22.3725 104.591 21.8686V21.8686ZM109.74 20.2779C110.334 19.9359 110.819 19.4342 111.139 18.8304C111.473 18.1667 111.646 17.435 111.646 16.693C111.646 15.9511 111.473 15.2194 111.139 14.5557C110.821 13.9538 110.335 13.4554 109.74 13.1199C109.12 12.7889 108.427 12.6156 107.723 12.6156C107.018 12.6156 106.325 12.7889 105.705 13.1199C105.107 13.4564 104.616 13.9541 104.289 14.5557C103.949 15.2173 103.771 15.9499 103.771 16.693C103.771 17.4362 103.949 18.1688 104.289 18.8304C104.617 19.4338 105.108 19.935 105.705 20.2779C106.323 20.6166 107.017 20.7942 107.723 20.7942C108.428 20.7942 109.122 20.6166 109.74 20.2779V20.2779Z" fill="#4C7DFE"/>
<path d="M126.177 10.884V22.5067H124.053V17.8145C122.875 18.3794 121.586 18.679 120.278 18.6919C118.823 18.6919 117.698 18.3557 116.904 17.6831C116.109 17.0106 115.716 16.0017 115.724 14.6566V10.884H117.847V14.5299C117.847 15.3346 118.1 15.9376 118.607 16.3505C119.114 16.7634 119.825 16.9628 120.731 16.9628C121.882 16.9355 123.015 16.6744 124.06 16.1957V10.884H126.177Z" fill="#4C7DFE"/>
<path d="M139.077 15.8391C139.856 16.496 140.249 17.4243 140.257 18.6239C140.257 19.8752 139.835 20.8433 138.99 21.5284C138.145 22.2135 136.936 22.5458 135.361 22.5255L130.278 22.5067V10.884H132.402V14.8091L135.689 14.8302C137.169 14.8443 138.299 15.1806 139.077 15.8391ZM137.345 20.3553C137.838 19.9612 138.084 19.3747 138.084 18.6004C138.084 17.8262 137.848 17.2866 137.376 16.9347C136.904 16.5828 136.166 16.4021 135.182 16.3857L132.402 16.3435V20.902L135.182 20.9255C136.13 20.9395 136.852 20.7495 137.345 20.3553Z" fill="#4C7DFE"/>
<path d="M66.0928 27.2752V38.8932H63.9691V29.1146H58.9479L58.8157 31.6953C58.7704 33.008 58.6308 34.3158 58.3981 35.6087C58.2507 36.5097 57.9041 37.3671 57.3834 38.119C57.1591 38.4239 56.8625 38.6691 56.5201 38.8328C56.1776 38.9965 55.7999 39.0736 55.4203 39.0575C54.98 39.049 54.5429 38.9827 54.1201 38.8604L54.2523 37.0844C54.4253 37.1265 54.6027 37.1485 54.7808 37.1501C55.0519 37.1599 55.3202 37.0931 55.5545 36.9573C55.7889 36.8215 55.9796 36.6223 56.1045 36.3829C56.4138 35.8192 56.6086 35.2006 56.6779 34.5623C56.766 33.8616 56.8447 32.8606 56.9139 31.5592L57.1121 27.2635L66.0928 27.2752Z" fill="#4C7DFE"/>
<path d="M70.1936 27.2752H72.3172V35.7377L79.4834 27.2752H81.4017V38.8932H79.2781V30.4307L72.1261 38.8932H70.1865L70.1936 27.2752Z" fill="#4C7DFE"/>
<path d="M94.8223 27.2752V38.8932H92.6987V34.201C91.5208 34.767 90.2315 35.0667 88.9233 35.0784C87.4682 35.0784 86.3435 34.7421 85.5491 34.0696C84.7547 33.397 84.3614 32.389 84.3693 31.0454V27.2752H86.4929V30.914C86.4929 31.7164 86.7454 32.3217 87.2527 32.7323C87.76 33.1429 88.4702 33.347 89.3763 33.347C90.5271 33.3196 91.6601 33.0585 92.7057 32.5798V27.2752H94.8223Z" fill="#4C7DFE"/>
<path d="M98.9231 27.2752H101.047V32.2021H107.706V27.2752H109.829V38.8932H107.706V34.0297H101.04V38.8956H98.916L98.9231 27.2752Z" fill="#4C7DFE"/>
<path d="M115.814 38.2528C114.908 37.7613 114.157 37.0306 113.643 36.1413C113.129 35.2025 112.859 34.1507 112.859 33.0819C112.859 32.0131 113.129 30.9613 113.643 30.0226C114.154 29.1309 114.906 28.3994 115.814 27.911C116.776 27.3984 117.853 27.1384 118.945 27.1556C120.034 27.1429 121.109 27.4095 122.064 27.9298C122.968 28.4199 123.717 29.1512 124.226 30.0413C124.74 30.98 125.009 32.0318 125.009 33.1007C125.009 34.1695 124.74 35.2213 124.226 36.16C123.714 37.0479 122.966 37.7784 122.064 38.2715C121.109 38.7923 120.034 39.0567 118.945 39.0387C117.85 39.0498 116.772 38.779 115.814 38.2528V38.2528ZM120.969 36.6691C121.563 36.326 122.049 35.8246 122.371 35.2216C122.704 34.5579 122.878 33.8262 122.878 33.0843C122.878 32.3423 122.704 31.6106 122.371 30.9469C122.051 30.3454 121.564 29.8472 120.969 29.5111C120.349 29.1801 119.656 29.0068 118.952 29.0068C118.248 29.0068 117.555 29.1801 116.934 29.5111C116.336 29.8474 115.845 30.3451 115.519 30.9469C115.178 31.6085 115.001 32.3411 115.001 33.0843C115.001 33.8274 115.178 34.56 115.519 35.2216C115.847 35.8247 116.337 36.3257 116.934 36.6691C117.553 37.0061 118.247 37.1828 118.952 37.1828C119.657 37.1828 120.351 37.0061 120.969 36.6691V36.6691Z" fill="#4C7DFE"/>
<path d="M29.4234 45.0693C27.8873 43.9737 27.0048 42.1695 26.8279 40.3231C26.7453 39.699 26.7453 39.0421 26.4668 38.4626C26.0433 37.6839 25.3356 37.0961 24.4895 36.8203C23.3097 36.4473 22.0284 36.872 20.8227 36.5717C15.6079 35.4408 15.1832 28.1373 20.2988 26.495C21.2916 26.1721 22.3586 26.1501 23.364 26.4316C24.3695 26.7132 25.268 27.2857 25.9454 28.0763C27.5735 29.8852 26.7288 31.9029 28.7769 33.2894C29.112 33.5277 29.494 33.6928 29.8979 33.7737C30.3017 33.8545 30.7183 33.8494 31.12 33.7586C32.019 33.6038 32.9227 33.3997 33.8406 33.4888C35.0798 33.5795 36.2666 34.0225 37.2597 34.7651C40.1266 36.9048 40.6717 41.2616 38.3569 44.0018C36.2686 46.6365 32.0992 47.1316 29.4281 45.0904L29.4234 45.0693Z" fill="url(#paint0_linear_159_1880)"/>
<path d="M28.3251 25.6153C25.6139 24.1583 24.3657 20.6884 25.4039 17.8214C26.1118 15.8413 27.5865 14.619 29.4789 13.8096C30.4228 13.3849 30.6092 12.7022 30.3779 11.759C30.2058 11.0512 30.1047 10.3282 30.0759 9.6006C30.0589 8.42452 30.3174 7.26065 30.831 6.20106C32.8838 2.03904 38.5233 0.732243 42.176 3.63909C45.8381 6.48495 46.0339 12.1579 42.4544 15.1539C41.8776 15.6401 41.2321 16.0393 40.5384 16.3387C39.5521 16.8079 37.8225 16.8971 37.9192 18.3399C37.9428 19.0743 38.049 19.8109 37.9877 20.5453C37.8975 21.7009 37.4894 22.8097 36.8079 23.7501C34.9815 26.3778 31.0858 27.2458 28.3251 25.6153Z" fill="url(#paint1_linear_159_1880)"/>
<path d="M10.2738 44.45C13.1929 44.45 15.5593 42.0972 15.5593 39.1947C15.5593 36.2923 13.1929 33.9394 10.2738 33.9394C7.35469 33.9394 4.98828 36.2923 4.98828 39.1947C4.98828 42.0972 7.35469 44.45 10.2738 44.45Z" fill="#4C7DFE"/>
<path d="M19.4192 5.50194C20.6911 5.50194 21.7222 4.47676 21.7222 3.21212C21.7222 1.94749 20.6911 0.922302 19.4192 0.922302C18.1473 0.922302 17.1162 1.94749 17.1162 3.21212C17.1162 4.47676 18.1473 5.50194 19.4192 5.50194Z" fill="#4C7DFE"/>
<path d="M41.7052 33.9722C44.0444 33.9722 45.9407 32.0868 45.9407 29.7609C45.9407 27.4351 44.0444 25.5496 41.7052 25.5496C39.366 25.5496 37.4697 27.4351 37.4697 29.7609C37.4697 32.0868 39.366 33.9722 41.7052 33.9722Z" fill="#4C7DFE"/>
<path d="M1.93435 24.8739C-0.493683 21.1482 0.704996 15.9821 4.52992 13.6923C6.37294 12.5931 8.57864 12.2642 10.6649 12.7773C11.2097 12.9166 11.7399 13.1075 12.2482 13.3474C13.0221 13.6876 13.8551 14.3445 14.7329 13.9644C15.7286 13.5937 15.7286 12.3831 16.1061 11.5502C16.4133 10.7983 16.9242 10.1459 17.5822 9.66565C18.2401 9.18537 19.0192 8.89605 19.8327 8.8299C20.6462 8.76375 21.4622 8.92337 22.1898 9.29099C22.9175 9.65861 23.5283 10.2198 23.9542 10.9121C25.4219 13.3098 24.2468 16.585 21.5238 17.4132C19.3766 18.1171 17.9608 16.6671 17.0405 17.4132C16.2713 18.0936 16.7786 19.2127 16.7668 20.0831C16.8185 21.0486 16.6962 22.0156 16.4058 22.9383C16.0469 24.0936 15.4276 25.1523 14.5951 26.0337C13.7626 26.9151 12.7388 27.5961 11.6017 28.0247C9.86945 28.6694 7.96819 28.7089 6.21043 28.1367C4.45267 27.5645 2.94301 26.4147 1.92963 24.8762L1.93435 24.8739Z" fill="url(#paint2_linear_159_1880)"/>
</g>
<defs>
<linearGradient id="paint0_linear_159_1880" x1="17.0756" y1="29.2306" x2="39.1503" y2="43.9047" gradientUnits="userSpaceOnUse">
<stop stop-color="#AAC3FF"/>
<stop offset="0.27" stop-color="#87A9FE"/>
<stop offset="1" stop-color="#2963FD"/>
</linearGradient>
<linearGradient id="paint1_linear_159_1880" x1="41.9848" y1="3.17691" x2="27.8547" y2="23.7039" gradientUnits="userSpaceOnUse">
<stop stop-color="#AAC3FF"/>
<stop offset="0.27" stop-color="#87A9FE"/>
<stop offset="1" stop-color="#2963FD"/>
</linearGradient>
<linearGradient id="paint2_linear_159_1880" x1="22.503" y1="9.63815" x2="3.87218" y2="24.5392" gradientUnits="userSpaceOnUse">
<stop offset="0.08" stop-color="#AAC3FF"/>
<stop offset="0.23" stop-color="#95B3FF"/>
<stop offset="0.58" stop-color="#6993FE"/>
<stop offset="0.84" stop-color="#4E7EFD"/>
<stop offset="1" stop-color="#4477FD"/>
</linearGradient>
<clipPath id="clip0_159_1880">
<rect width="140.4" height="48" fill="white"/>
</clipPath>
</defs>
</svg>
