<svg width="120" height="80" viewBox="0 0 120 80" fill="none" xmlns="http://www.w3.org/2000/svg">
<path d="M53.0331 44.641V37.4811C53.0331 36.4413 53.7961 35.7969 54.3772 35.7495C55.3614 35.6625 55.2783 36.5125 55.2783 37.8527V43.6091C55.2783 44.9454 55.3614 45.7994 54.3772 45.7124C53.7961 45.665 53.0331 45.151 53.0331 44.641ZM53.0133 35.8879L52.9302 35.9867L53.0133 33.9071C52.1038 34.0929 51.1073 34.2471 50.0638 34.3618C48.7038 34.512 47.4111 34.5753 46.2563 34.5595V34.7215H46.2603V34.8441H46.375C46.7152 34.8283 47.7311 35.018 47.7627 36.212V47.2661C47.7706 49.4485 49.0238 52.1962 52.4713 52.7971C52.6849 52.8327 52.859 52.8406 52.9974 52.8406V45.8824C53.0054 45.8784 53.0133 45.8784 53.0133 45.8784C53.4401 46.0959 54.0172 46.3252 54.8713 46.3252C58.7614 46.3252 60.8212 44.0163 60.8212 39.9046C60.8212 36.5125 59.4414 34.085 56.7293 34.085C55.1957 34.085 53.9658 34.8757 53.0133 35.8879Z" fill="#FF5959"/>
<path d="M37.9658 40.1102C37.9658 35.7099 38.4639 34.2748 39.1676 34.2748C39.8951 34.2748 40.3695 35.7099 40.3695 40.1102C40.3695 44.4828 39.8951 45.9219 39.1676 45.9219C38.4639 45.9219 37.9658 44.4828 37.9658 40.1102ZM32.4189 40.1102C32.4189 43.9056 35.1746 46.2896 39.1676 46.2896C43.1568 46.2896 45.8928 43.9056 45.8928 40.1102C45.8928 36.3385 43.1568 33.9071 39.1676 33.9071C35.1746 33.9071 32.4189 36.3385 32.4189 40.1102Z" fill="#FF5959"/>
<path d="M101.843 44.131V38.3193C101.843 36.4176 100.949 34.5357 98.9291 34.1404V34.1364C98.6838 34.0811 98.4153 34.0534 98.1304 34.0534C96.6992 34.0534 94.9243 34.6583 94.1256 36.133C94.1256 36.133 93.9555 36.4334 93.8605 36.7418C93.2478 34.6662 91.639 34.0573 90.4052 34.0573C88.9739 34.0573 87.199 34.6583 86.3964 36.1409L86.3845 36.0895L86.4003 33.9071C85.5225 34.0771 84.5779 34.2234 83.5854 34.3301C82.0948 34.4922 80.6913 34.5515 79.4658 34.5159V34.682H79.4698V34.7927H79.5805C79.9124 34.7848 80.897 34.9667 80.9485 36.0974V43.0319H80.9445V43.8661C80.9445 45.6689 82.1977 45.9219 83.6289 45.9219H88.0491V45.7242C87.1238 45.6689 86.4082 45.3605 86.3964 44.1665V37.4455C86.3964 36.3978 87.1713 35.7495 87.7564 35.698C88.7568 35.6151 88.6737 36.473 88.6737 37.8211V43.0319H88.6658V43.8661C88.6658 45.6689 89.9151 45.9219 91.3463 45.9219H95.7704V45.7242C94.8847 45.6729 94.1968 45.3882 94.1216 44.3207V38.6948C94.1216 38.4853 94.1098 38.2758 94.0979 38.082L94.1296 37.319C94.1849 36.3425 94.9243 35.7416 95.4816 35.6941C96.4821 35.6071 96.399 36.469 96.399 37.8172V39.4974V39.5014V43.8661C96.399 45.6689 97.6482 45.9219 99.0794 45.9219H103.5V45.7242C102.566 45.6689 101.843 45.3526 101.843 44.131Z" fill="#FF5959"/>
<path d="M111.494 42.7828C111.494 44.218 110.601 44.5184 110.158 44.3879C109.576 44.21 109.407 43.6684 109.407 42.68C109.407 41.1777 109.794 40.3395 110.272 39.6437C110.743 38.9637 111.289 38.4577 111.494 37.8132V42.7828ZM119.69 43.0556C119.757 43.2137 119.793 43.3798 119.793 43.5577C119.793 44.297 119.16 44.894 118.381 44.894C117.622 44.894 116.998 44.3247 116.966 43.617C116.966 43.5893 116.962 43.5696 116.962 43.5498V37.6471C116.962 35.4609 114.752 33.9071 110.201 33.9071C108.782 33.9071 107.169 34.0653 106.015 34.6148V34.6346C105.121 35.0062 104.496 35.8483 104.496 36.8288C104.496 38.1532 105.635 39.2325 107.038 39.2325C108.438 39.2325 109.576 38.1532 109.576 36.8288C109.576 36.7695 109.573 36.7102 109.569 36.6509C109.573 36.5481 109.58 36.4374 109.58 36.3267C109.58 36.3267 109.545 34.9588 109.545 34.8718C109.545 34.4685 109.889 34.1404 110.32 34.1404C110.569 34.1404 110.791 34.2471 110.933 34.4132C111.328 34.8243 111.494 35.698 111.494 36.6588V36.7418C111.494 38.9914 108.821 39.6674 107.802 39.9165C105.232 40.5491 104.069 41.5335 103.986 43.1031C103.966 43.3482 103.982 43.5735 104.018 43.791C104.243 45.1668 105.437 45.9219 107.244 45.9219C108.96 45.9219 110.68 45.5028 111.553 43.8344C111.553 43.8344 111.866 45.4159 114.352 45.8271C116.041 46.1117 120.65 45.831 119.923 43.0477L119.69 43.0556Z" fill="#FF5959"/>
<path d="M69.9936 34.6859C68.5624 34.5871 68.238 34.1562 68.238 32.5747V31.1396H67.8468C67.0125 32.211 64.8301 34.4962 61.2798 34.6938V35.0022H62.6714V42.6721C62.6714 44.8465 64.34 46.4319 67.5778 46.4319C68.7993 46.4319 69.9699 45.997 70.7444 45.4119C70.7642 45.404 70.6301 45.2774 70.6301 45.2774C70.456 45.3684 70.1633 45.4395 69.9778 45.4395C68.4358 45.4395 68.238 44.0598 68.238 42.6721V34.9864H70.1514V34.6899L69.9936 34.6859Z" fill="#FF5959"/>
<path d="M77.9283 44.2179V36.9276H77.9204L77.9323 31.5468C78.4105 30.3449 78.3986 28.9968 77.8611 27.783C77.8096 27.6447 77.7424 27.5142 77.6593 27.3837C77.6277 27.3205 77.5921 27.2572 77.5525 27.194L77.5406 27.2019C77.4457 27.0635 77.3393 26.937 77.2167 26.8184C76.0975 25.7272 74.2751 25.7272 73.1564 26.8184C72.0373 27.9056 72.0334 29.6689 73.1564 30.7561C74.2751 31.8433 76.0975 31.8433 77.2167 30.7561C77.5169 30.4675 77.7345 30.1235 77.8769 29.7559C77.869 30.934 77.3982 32.0884 76.4971 32.9662C76.327 33.1282 76.149 33.2824 75.9674 33.4247C75.6549 33.6026 75.2989 33.7766 74.8879 33.9308C74.1208 34.2155 73.2 34.3696 72.5002 34.4211C72.3142 34.4368 72.4844 34.4447 72.338 34.4447H72.1639V34.4408H71.5591V34.7373H71.5789C71.9384 34.7492 72.3657 34.6266 72.5002 35.536C72.5121 35.6071 72.5156 36.0183 72.5195 36.0974V37.319H72.5116V43.0951V43.9372C72.5116 45.7124 73.6742 46.0128 75.0422 46.0247C75.0817 46.0287 75.1292 46.0287 75.1727 46.0287H75.1767H79.5688V45.8231C78.6439 45.7677 77.9323 45.4514 77.9283 44.2179Z" fill="#FF5959"/>
<path d="M15.6797 32.2031C15.6797 36.5797 15.1895 38.0148 14.4423 38.0148C13.7227 38.0148 13.2048 36.5797 13.2048 32.2031C13.2048 27.7989 13.7227 26.3637 14.4423 26.3637C15.1895 26.3637 15.6797 27.7989 15.6797 32.2031ZM14.4423 38.3825C14.9721 38.3825 15.482 38.339 15.9644 38.2639C16.4625 35.536 18.4116 33.6462 21.274 33.2547C21.3214 32.9147 21.3491 32.5668 21.3491 32.2031C21.3491 28.4314 18.5421 26 14.4423 26C10.3464 26 7.51172 28.4314 7.51172 32.2031C7.51172 32.5629 7.53937 32.9147 7.58684 33.2469C10.4769 33.6303 12.4062 35.5241 12.9004 38.2599C13.3906 38.339 13.9046 38.3825 14.4423 38.3825Z" fill="#FF5959"/>
<path d="M13.2048 47.6219C13.2048 43.2177 13.7227 41.7826 14.4423 41.7826C15.1895 41.7826 15.6797 43.2177 15.6797 47.6219C15.6797 51.9985 15.1895 53.4336 14.4423 53.4336C13.7227 53.4336 13.2048 51.9985 13.2048 47.6219ZM14.4423 41.4188C13.9046 41.4188 13.3867 41.4623 12.8925 41.5453C12.3943 44.2654 10.4689 46.1631 7.59475 46.5505C7.53937 46.8945 7.51172 47.2503 7.51172 47.6219C7.51172 51.4173 10.3464 53.8013 14.4423 53.8013C18.5421 53.8013 21.3491 51.4173 21.3491 47.6219C21.3491 47.2503 21.3214 46.8905 21.266 46.5426C18.4195 46.1473 16.4744 44.2575 15.9683 41.5414C15.486 41.4623 14.976 41.4188 14.4423 41.4188Z" fill="#FF5959"/>
<path d="M0.387439 39.6595C0.387439 38.9518 1.9056 38.4853 6.56681 38.4853C11.2044 38.4853 12.7225 38.9518 12.7225 39.6595C12.7225 40.3435 11.2044 40.8297 6.56681 40.8297C1.9056 40.8297 0.387439 40.3435 0.387439 39.6595ZM13.1099 39.6595C13.1099 39.1574 13.0665 38.6751 12.9834 38.2164C10.0934 37.742 8.08101 35.9155 7.67776 33.1876C7.32193 33.1401 6.95033 33.1164 6.56681 33.1164C2.5777 33.1164 0 35.7771 0 39.6595C0 43.5379 2.5777 46.2263 6.56681 46.2263C6.95429 46.2263 7.32589 46.1986 7.68171 46.1512C8.09684 43.4509 10.1013 41.6086 12.9795 41.1302C13.0625 40.6637 13.1099 40.1695 13.1099 39.6595Z" fill="#FF5959"/>
<path d="M16.5969 39.6595C16.5969 38.9518 18.1151 38.4853 22.7763 38.4853C27.4138 38.4853 28.9319 38.9518 28.9319 39.6595C28.9319 40.3435 27.4138 40.8297 22.7763 40.8297C18.1151 40.8297 16.5969 40.3435 16.5969 39.6595ZM21.6416 33.1915C21.2384 35.9273 19.2339 37.7539 16.336 38.2204C16.2529 38.679 16.2095 39.1574 16.2095 39.6595C16.2095 40.1695 16.2569 40.6597 16.3399 41.1262C19.222 41.6007 21.2225 43.443 21.6376 46.1473C22.0014 46.1986 22.3809 46.2263 22.7763 46.2263C26.7931 46.2263 29.3194 43.5379 29.3194 39.6595C29.3194 35.7771 26.7931 33.1164 22.7763 33.1164C22.3849 33.1164 22.0053 33.144 21.6416 33.1915Z" fill="#FF5959"/>
</svg>
