<svg width="168" height="118" viewBox="0 0 168 118" fill="none" xmlns="http://www.w3.org/2000/svg">
<path fill-rule="evenodd" clip-rule="evenodd" d="M71.6944 49.5221C69.9169 50.8106 70.1999 53.3458 70.7349 55.1879C71.5228 57.9001 73.0922 60.4109 74.8824 62.5752C78.0584 66.4146 83.45 70.7257 88.4199 67.3551C92.8458 64.3531 95.6375 58.2958 96.6012 53.1937C96.899 51.6169 97.2957 49.2677 95.8963 48.0822C93.8275 46.33 90.1782 46.6488 87.6808 46.8744C86.036 47.0228 84.449 47.527 82.8237 47.2904C79.0473 46.74 74.8443 47.2385 71.6944 49.5221Z" fill="#FF5678"/>
<path fill-rule="evenodd" clip-rule="evenodd" d="M148.262 69.6139C144.662 74.1813 138.54 74.903 133.103 74.8582C129.839 74.8312 126.568 74.5854 123.367 73.9201C121.642 73.5613 119.928 73.0861 118.26 72.5153C117.159 72.1381 115.52 71.9496 115.051 70.7696C113.815 67.6562 114.724 63.7517 115.233 60.5916C115.492 58.9843 115.687 57.3672 115.939 55.7585C116.1 54.7294 116.177 53.5906 116.608 52.6277C117.113 51.4997 117.751 51.725 118.819 52.0366C120.291 52.4663 121.802 52.6448 123.315 52.8758C127.008 53.4397 130.229 54.5767 133.585 56.1884C136.904 57.7819 140.123 59.3548 143.083 61.5706C144.582 62.6935 145.875 63.9123 147.078 65.3434C148.008 66.4489 149.396 68.175 148.262 69.6139ZM132.523 89.9007C132.494 90.3925 126.851 88.9079 126.109 88.7413C121.236 87.6484 116.267 86.4038 111.667 84.4291C107.374 82.5862 103.591 80.4776 100.212 77.2031C98.6374 75.6769 97.2208 74.0695 95.8654 72.3578C95.1861 71.4998 94.2579 71.5994 93.5003 70.8736C92.8189 70.2203 92.2963 69.7103 92.5092 68.7336C94.2121 69.1822 97.3562 72.0025 99.1214 70.5784C100.128 69.7666 98.732 68.9186 98.0879 68.4483C96.8769 67.5638 95.8413 66.4725 94.8787 65.3272C96.5315 65.6476 98.0701 66.2667 99.5086 67.1283C100.148 67.5111 102.338 68.8992 102.848 67.576C103.162 66.7613 101.677 65.7377 101.214 65.287C100.076 64.1805 98.8487 62.8887 98.245 61.401C99.7377 61.0548 101.145 62.2084 102.161 63.1481C103.29 64.1913 104.673 65.2863 105.619 66.4884C106.107 67.1085 106.214 67.8407 106.595 68.5095C107.024 69.2619 107.71 69.9068 108.366 70.4636C109.63 71.5363 111.108 72.3261 112.625 72.9794C116.092 74.4722 119.808 75.5286 123.504 76.2696C125.317 76.6332 127.085 76.8007 128.925 76.8624C130.356 76.9104 130.988 77.338 131.534 78.6557C133.012 82.2212 132.744 86.1437 132.523 89.9007ZM90.0854 62.7328C89.2586 63.5064 88.1842 63.9917 87.3199 64.7356C86.5593 65.39 85.6821 66.0883 84.8333 66.6176C83.9271 67.1824 83.2501 66.7864 82.4342 66.2752C81.4764 65.6755 80.3754 65.4325 79.3889 64.8959C75.9781 63.0395 71.8053 58.4908 72.442 54.3143C72.7119 52.5441 73.6271 50.8023 75.289 49.9991C76.7984 49.2699 78.9924 48.8651 80.607 49.4748C81.5179 49.8187 82.1696 50.578 82.7532 51.3244C83.4336 52.1946 83.6943 52.0574 84.3873 51.2181C85.6274 49.7168 87.6724 48.3997 89.694 48.4313C90.6987 48.4472 91.6968 48.6591 92.6018 49.076C92.7245 49.1326 92.7928 49.3038 92.9159 49.3618C93.067 49.4329 93.3154 49.2849 93.4205 49.3514C93.6855 49.5191 93.9501 50.0433 94.1028 50.3091C94.7162 51.3762 95.8205 53.4688 94.7076 54.3672C94.7069 54.3677 94.7572 55.5827 94.7419 55.7213C94.6634 56.4462 94.4128 57.0448 94.0899 57.7077C93.1203 59.6995 91.6889 61.2329 90.0854 62.7328ZM91.7341 79.5843C90.9508 79.8278 90.1071 77.3731 90.8584 76.9813C91.5748 76.6076 92.4433 79.3641 91.7341 79.5843ZM79.4317 76.6494C79.1604 77.5766 79.0458 78.6289 78.3825 79.3835C77.7751 78.6628 77.7152 77.3329 78.3042 76.5921C78.6406 76.1694 79.7284 75.6362 79.4317 76.6494ZM104.497 60.4031C104.493 60.4267 105.44 60.8794 104.978 61.3747C104.347 62.0511 104.433 60.7346 104.497 60.4031ZM108.41 52.846C108.399 53.7837 106.415 53.5573 106.429 52.6143C106.446 51.4538 108.422 51.8522 108.41 52.846ZM106.041 45.0104C106.238 44.152 109.69 42.9579 109.596 44.4539C109.549 45.204 105.624 46.8353 106.041 45.0104ZM70.6496 74.1206C70.2626 74.5858 69.7129 74.7692 69.249 75.1264C68.7625 75.5006 68.4149 75.9862 67.9901 76.4255C66.8233 77.6318 65.4188 78.6231 64.1601 79.7312C61.846 81.7682 59.6293 83.9581 57.0636 85.6858C52.4785 88.7727 47.1617 90.4611 41.8834 91.9395C41.4462 92.062 40.1866 92.5563 39.754 92.1881C39.2874 91.791 39.5246 90.3937 39.5462 89.8654C39.6336 87.6992 39.8862 85.5075 39.8589 83.3446C39.8475 82.4561 39.5873 81.1932 40.051 80.3803C40.5685 79.4725 42.0135 79.2068 42.9074 78.8652C45.6243 77.8268 48.2414 76.0751 50.6414 74.4528C53.5916 72.4583 56.5712 70.4308 59.6073 68.5689C62.5818 66.7449 65.8628 65.5235 69.1808 64.4817C69.3344 64.8047 67.7513 65.8442 67.5703 65.9899C66.7023 66.6887 65.7579 67.4131 65.1135 68.3355C64.6573 68.9886 64.1895 70.4663 65.4492 70.5042C66.0597 70.5227 66.9624 69.932 67.5161 69.741C68.4306 69.4254 69.3729 69.2039 70.3295 69.0597C69.5071 69.9653 66.7196 71.5918 67.2268 73.0977C67.7189 74.559 70.5651 72.8538 71.5449 72.8538C71.3843 73.3634 70.9806 73.7228 70.6496 74.1206ZM37.0237 78.1992C35.2009 78.8402 33.3326 79.2048 31.4513 79.6185C29.6581 80.013 28.0007 80.3103 26.164 80.0793C23.6281 79.7605 20.8219 78.7102 20.5004 75.8286C20.1192 72.4146 22.5303 69.2774 24.6007 66.828C27.1204 63.8478 29.9498 61.1837 33.0162 58.7713C36.0791 56.3612 39.3851 54.2364 42.8486 52.4427C45.4836 51.0782 48.4595 50.2495 51.2456 49.2255C51.7756 49.0308 53.2417 48.3461 53.7375 48.9134C54.1381 49.3722 53.5928 50.1366 53.4102 50.5626C53.054 51.393 53.0049 52.229 52.913 53.1207C52.5022 57.1027 52.0078 61.0836 51.7802 65.0828C51.7168 66.1974 51.6053 67.3633 51.6703 68.4785C51.7062 69.0962 52.0277 69.883 51.8136 70.4862C51.402 71.6456 49.5175 72.413 48.5187 72.9309C46.7307 73.8579 44.8373 74.5498 43.031 75.4366C41.0472 76.4105 39.1156 77.4632 37.0237 78.1992ZM62.3034 52.3251C62.8038 52.2565 63.5533 52.1202 63.9993 52.4443C64.5809 52.8671 64.4284 53.4552 63.8912 53.7617C63.4669 54.0041 62.474 54.0703 62.0548 53.8504C61.3407 53.476 61.4615 52.4411 62.3034 52.3251ZM65.0744 61.5459C64.6701 62.2193 63.1924 62.6609 63.3211 61.4043C63.4315 60.3283 65.819 60.3058 65.0744 61.5459ZM64.5259 42.5754C65.1758 42.8271 66.3553 43.0427 66.5481 43.8787C66.7275 44.6569 65.9901 44.6054 65.4579 44.3913C65.0203 44.2155 63.0704 42.562 64.5259 42.5754ZM166.361 72.2608C165.981 70.7835 166.27 69.148 166.061 67.6349C165.857 66.1683 165.492 64.8204 164.967 63.438C163.805 60.3779 162.474 57.6232 160.591 54.9375C157.043 49.8799 152.928 45.425 147.959 41.7308C143.053 38.0839 137.62 35.1202 131.865 33.043C125.763 30.8401 119.62 30.0734 113.185 29.6511C111.263 29.5252 109.343 29.3758 107.432 29.133C106.035 28.9556 104.285 28.7371 102.904 29.1649C102.036 29.4338 101.551 30.1903 102.497 30.6867C103.167 31.0388 104.044 31.0808 104.784 31.1744C103.89 34.0143 102.435 36.864 100.13 38.8195C97.88 40.7287 94.8687 41.3831 92.0287 41.8673C90.4886 42.1297 88.7642 42.3328 87.2002 42.2196C86.2114 42.1482 85.4399 41.6904 85.0409 42.7089C84.7641 43.4164 84.6331 44.1928 84.2681 43.1245C83.8364 41.8613 83.6246 41.8694 82.2817 41.5107C79.5354 40.777 76.3871 40.1075 73.9912 38.521C71.5056 36.8749 70.641 34.2119 69.2534 31.7323C68.9102 31.1194 67.8751 29.8789 68.404 29.1767C68.8877 28.5345 70.4607 28.5984 71.181 28.5315C71.9412 28.4608 72.7059 28.4578 73.4686 28.4282C73.9104 28.4111 74.7992 28.5922 74.6215 27.9322C74.3532 26.9375 71.4799 27.065 70.7663 27.0489C69.4393 27.0191 68.094 27.0498 66.7738 27.1958C60.2274 27.9198 53.6222 29.2584 47.2874 31.0436C34.9968 34.5068 23.0932 40.8886 14.1237 50.0823C5.51379 58.9073 2.78602 73.5932 8.07906 84.8614C10.8297 90.7175 16.7993 93.1232 22.5861 95.0662C25.6384 96.0909 28.8705 96.8925 32.1151 96.6992C33.6721 96.6063 35.1496 96.187 36.6682 95.8712C37.3304 95.7333 38.084 95.5136 38.7643 95.5691C39.2793 95.6111 39.7739 96.0838 40.257 95.8327C40.5998 95.6543 40.7488 95.1426 41.1678 94.9246C41.6707 94.6631 42.2806 94.5686 42.8239 94.4367C44.3339 94.0699 45.7961 93.475 47.2721 92.9874C48.7983 92.4829 50.2387 91.8333 51.7032 91.1765C52.4427 90.8448 54.1539 89.4962 54.6358 90.4821C54.8554 90.9321 54.7619 91.8 54.8154 92.272C54.9091 93.0973 55.0193 93.9209 55.1397 94.7428C55.4049 96.5522 55.7225 98.3541 56.0479 100.154C56.6354 103.401 57.3922 106.51 58.6579 109.564C59.6684 112.003 60.5556 114.768 62.4321 116.708C63.2512 117.555 64.3689 117.936 65.5438 117.67C66.8803 117.367 67.5455 116.153 68.3568 115.171C70.1418 113.012 73.0887 111.357 75.81 110.761C79.1424 110.031 82.3884 111.098 85.5691 112.005C88.9336 112.965 92.3588 113.879 95.6613 115.032C98.7385 116.107 102.061 117.694 105.399 117.556C108.309 117.435 111.028 115.067 113.127 113.261C115.235 111.448 117.871 108.793 120.902 109.006C122.407 109.112 123.779 109.838 125.245 110.134C126.854 110.458 128.567 110.504 130.204 110.625C132.235 110.774 136.781 110.245 137.532 107.801C137.644 107.438 137.645 106.691 137.166 106.546C136.725 106.413 136.5 106.928 136.083 106.904C135.234 106.856 134.57 105.376 134.104 104.803C132.222 102.49 129.64 100.764 127.528 98.6738C125.143 96.3141 123.107 93.4549 121.31 90.6351C122.122 90.4239 122.999 90.7746 123.785 90.9412C124.74 91.1435 125.671 91.3881 126.613 91.6473C127.651 91.9331 128.703 92.1294 129.756 92.3473C130.542 92.5094 131.585 92.5584 132.294 92.9525C132.913 93.2967 133.259 93.6663 134.027 93.7661C134.809 93.8675 135.612 93.782 136.397 93.7767C138.521 93.7624 140.64 93.7229 142.754 93.4984C150.224 92.7049 158.142 89.5454 162.633 83.2753C163.855 81.5698 164.839 79.6804 165.461 77.6755C165.946 76.1102 166.783 73.9044 166.361 72.2608Z" fill="black"/>
<path fill-rule="evenodd" clip-rule="evenodd" d="M96.3025 0.0172525C98.2655 0.0450367 100.105 0.627117 101.934 1.28885C103.543 1.87069 105.258 2.40901 106.558 3.5704C108.898 5.65954 109.507 9.11868 109.89 12.0782C110.367 15.7712 108.778 18.8696 107.441 22.2106C106.19 25.3354 103.894 27.8668 101.165 29.7957C99.7354 30.8061 98.1553 31.416 96.5022 31.9509C94.8228 32.494 93.1965 33.2215 91.3999 33.2187C88.6714 33.2148 85.1783 31.9189 84.016 29.2308C83.487 28.0069 84.0022 27.7872 85.061 28.4524C86.5971 29.4174 88.078 30.4588 89.873 30.8869C93.3543 31.7175 97.5238 30.4308 100.576 28.7332C103.628 27.036 105.676 24.4866 107.045 21.312C108.427 18.1094 108.964 14.9536 108.431 11.5009C107.979 8.57503 107.081 5.90242 104.445 4.31409C98.7527 0.885742 91.0838 1.16196 86.022 5.6174C85.3278 6.22819 84.6416 6.82254 83.9263 7.40578C83.4714 7.77647 82.9359 8.22125 83.0021 8.86237C83.0585 9.41134 84.2291 11.528 82.8195 10.8779C81.6769 10.3507 81.056 9.32012 79.6718 9.19254C78.1986 9.05663 76.4414 10.1884 76.0006 11.6128C75.5803 12.9719 76.3298 14.8314 77.5039 15.6109C78.231 16.0937 79.031 16.0191 79.8567 15.9997C80.2664 15.99 81.4072 15.8568 81.6783 16.29C82.1581 17.0562 80.4654 17.8615 79.9192 18.0309C78.5898 18.4433 77.0188 17.958 76.2547 16.7714C75.4778 15.5651 74.9462 14.1689 74.8391 12.7318C74.7368 11.3548 75.0494 9.96077 75.8616 8.83019C76.7257 7.62782 78.4869 6.27982 80.0658 6.69751C80.7511 6.87881 81.3017 7.58684 81.9742 7.72136C82.3987 7.8061 82.2201 7.86677 82.5718 7.55211C82.795 7.35253 83.006 6.98415 83.2121 6.74752C84.3971 5.38702 85.5688 3.93506 87.0191 2.84615C89.6197 0.893614 93.0762 -0.0285916 96.3025 0.0172525ZM89.1111 26.9907C89.4187 26.2697 89.9837 27.5559 90.1507 27.771C90.4814 28.1964 91.2591 28.5274 91.2255 29.1549C91.1701 30.1908 89.7581 29.9986 89.2873 29.4583C88.7515 28.843 88.8075 27.7028 89.1111 26.9907ZM99.1426 22.0859C99.9044 23.273 98.976 24.5544 98.3738 25.605C97.7979 26.6096 97.2631 27.7452 96.5927 28.6896C95.4799 30.2576 93.0587 28.5614 92.9868 26.9498C92.9319 25.7162 93.8057 26.2532 94.3666 26.7139C94.9439 27.1885 95.2174 27.3067 95.8227 26.7884C97.0401 25.7452 97.5871 24.001 98.4287 22.6803C98.5956 22.4184 98.898 22.261 99.1426 22.0859ZM101.314 22.4676C101.511 23.0417 101.098 24.5628 102.244 24.4107C102.877 24.3268 103.012 23.4185 103.345 23.0221C104.464 21.6895 104.121 24.2099 103.828 24.8408C103.184 26.2311 101.38 27.1891 100.485 25.4252C100.152 24.7691 100.154 23.941 100.323 23.2357C100.415 22.8515 100.952 21.4075 101.314 22.4676ZM91.0991 19.7488C90.9976 20.4186 90.368 21.7531 91.1367 22.2323C91.813 22.6541 92.9909 21.7381 93.5118 21.3556C94.053 20.9582 95.2794 19.8181 95.3275 21.2369C95.3521 21.9601 94.6281 22.8278 94.1116 23.2445C93.0094 24.133 90.7193 24.93 89.9071 23.2576C89.4646 22.3465 89.7067 21.0495 89.9991 20.1315C90.2362 19.3874 91.3439 18.1309 91.0991 19.7488ZM105.555 16.0816C106.003 16.6025 107.066 17.7694 106.488 18.5112C105.812 19.3782 104.714 17.7874 104.281 17.3447C103.891 16.9458 103.071 15.8101 103.421 15.2077C104 14.2108 105.161 15.6243 105.555 16.0816ZM98.5049 13.8389C99.971 14.794 98.0434 15.4817 97.2084 15.5672C96.1976 15.6703 94.9055 15.7387 93.9772 15.2428C92.6614 14.5398 93.0999 13.4779 94.3753 13.2237C95.6831 12.9632 97.3671 13.0975 98.5049 13.8389ZM79.4453 10.7983C80.5235 11.0081 81.7549 11.2811 82.1221 12.4566C82.5012 13.6713 81.9565 14.0745 80.8552 13.801C79.8364 13.5479 78.3145 13.2932 77.7384 12.2979C77.0502 11.1089 78.4456 10.6041 79.4453 10.7983Z" fill="black"/>
<path fill-rule="evenodd" clip-rule="evenodd" d="M20.1224 36.9004C19.7606 38.0689 17.9293 38.8438 17.0161 39.5541C13.8219 42.039 10.7006 44.6263 7.81288 47.4624C6.31404 48.9344 5.17955 50.715 3.87978 52.3522C3.56265 52.7516 3.00084 53.6466 2.37885 53.5625C1.69644 53.4706 1.55848 52.2953 1.58024 51.782C1.65478 50.0317 3.25339 48.3412 4.39343 47.1359C5.67584 45.7807 7.04691 44.46 8.44714 43.2259C9.9888 41.8674 11.6617 40.6997 13.3666 39.5564C15.0407 38.4338 16.6457 37.1368 18.3867 36.12C19.2069 35.641 20.5687 35.4588 20.1224 36.9004ZM131.778 25.8039C133.111 25.846 134.412 26.2833 135.67 26.6893C138.435 27.5825 141.07 28.8215 143.667 30.1165C148.222 32.3865 152.604 35.133 156.622 38.2558C157.461 38.9084 158.322 39.4373 159.236 39.971C159.82 40.3128 160.653 40.7299 160.878 41.4267C161.45 43.1978 158.564 41.4202 158.154 41.1659L157.578 40.8085C149.03 35.511 140.492 30.3639 130.824 27.3258C130.309 27.164 130.149 26.7046 130.419 26.2491C130.712 25.7556 131.282 25.7884 131.778 25.8039ZM19.7334 29.5107C19.6716 30.0499 19.0607 30.1726 18.6488 30.3457C17.1117 30.9914 15.5362 31.542 14.0032 32.1984C11.158 33.4165 8.54514 35.1844 5.5754 36.1089C4.89674 36.3206 4.7966 35.6356 4.97829 35.1695C5.18066 34.6493 5.78845 34.2841 6.22803 33.9832C7.49613 33.1145 8.93431 32.49 10.3425 31.8866C11.7386 31.2878 13.1761 30.835 14.6075 30.3332C15.9379 29.8666 17.482 28.9984 18.9107 28.9342L18.9731 28.9312C19.4278 28.9082 19.8054 28.8775 19.7334 29.5107ZM134.205 21.3183C132.845 20.9359 134.129 20.0754 134.937 20.1358C135.839 20.2034 136.71 20.6288 137.564 20.8855C140.177 21.6701 142.599 22.5281 145.04 23.7459C145.404 23.9277 147.008 24.7896 145.947 25.1713C145.212 25.4357 143.495 24.3012 142.864 24.029C140.09 22.8329 137.109 22.135 134.205 21.3183Z" fill="black"/>
<path fill-rule="evenodd" clip-rule="evenodd" d="M80.0171 24.1038C80.1871 23.6052 82.2886 18.1556 81.4661 17.9913C80.5948 17.8171 79.4301 20.9789 79.1774 21.5501C78.244 23.6599 77.6912 25.9237 77.2581 28.1867C76.9565 29.7625 76.6914 31.3767 76.7971 32.9877C76.8783 34.2258 77.3896 34.4132 78.2323 35.1719C78.2323 31.4113 78.8038 27.663 80.0171 24.1038Z" fill="black"/>
</svg>
