<svg width="110" height="25" viewBox="0 0 110 25" fill="none" xmlns="http://www.w3.org/2000/svg">
<g clip-path="url(#clip0_409_4417)">
<path d="M87.6181 16.3236L98.124 17.9869L98.7499 14.0316L88.2866 12.374L98.7499 10.7165L98.124 6.76025L87.6807 8.41499L97.1046 3.61292L95.2858 0.0445557L75.4773 10.1371L71.0659 12.3854L75.4773 14.6328L95.247 24.7054L97.0657 21.1371L87.6181 16.3236Z" fill="black"/>
<path d="M23.398 17.1932C23.4045 18.0033 23.243 18.806 22.9238 19.5506C22.2968 21.0052 21.1312 22.1606 19.6712 22.7748C18.928 23.0881 18.1289 23.2474 17.3224 23.2432C16.5107 23.2496 15.7065 23.0881 14.9602 22.7691C13.5062 22.1429 12.3471 20.9838 11.7209 19.5298C11.4018 18.7834 11.2404 17.9792 11.2468 17.1676V7.58622C11.2432 6.77914 11.4045 5.97984 11.7209 5.23734C12.3411 3.77618 13.5016 2.61094 14.9602 1.98476C15.7065 1.66568 16.5107 1.50426 17.3224 1.51062C18.1294 1.50777 18.9285 1.66909 19.6712 1.98476C21.1351 2.59799 22.302 3.7581 22.9238 5.21838C23.2404 5.95915 23.4018 6.75695 23.398 7.56251V10.2623H19.345V7.47527C19.344 6.93832 19.1298 6.42377 18.7494 6.0448C18.369 5.66583 17.8536 5.45349 17.3167 5.4545C16.7797 5.4555 16.2652 5.66977 15.8862 6.05016C15.5072 6.43055 15.2949 6.94591 15.2959 7.48286V17.2662C15.2949 17.8032 15.5072 18.3185 15.8862 18.6989C16.2652 19.0793 16.7797 19.2936 17.3167 19.2946C17.8536 19.2956 18.369 19.0833 18.7494 18.7043C19.1298 18.3253 19.344 17.8108 19.345 17.2738V14.3588H23.3942L23.398 17.1932Z" fill="black"/>
<path d="M39.433 16.7617C39.4392 17.5734 39.2778 18.3775 38.9589 19.1239C38.332 20.5823 37.1665 21.7427 35.7054 22.3632C34.9632 22.6795 34.1642 22.8409 33.3574 22.8373H27.2847V1.91457H33.2237C34.0308 1.91112 34.8301 2.07246 35.5726 2.38871C37.0387 3.00887 38.2055 4.17595 38.8252 5.64225C39.1416 6.38473 39.3029 7.18404 39.2993 7.99113V8.26138C39.2954 8.64928 39.2409 9.03501 39.1372 9.4088C39.0312 9.80845 38.8771 10.1938 38.6782 10.5562C38.4803 10.9158 38.235 11.2471 37.949 11.5415C37.6655 11.8354 37.326 12.0695 36.9504 12.2299C37.3366 12.3795 37.6863 12.6097 37.9765 12.9051C38.2846 13.2148 38.5483 13.5659 38.7598 13.9482C38.9743 14.3317 39.142 14.7395 39.2595 15.1629C39.3718 15.5537 39.4308 15.9578 39.4349 16.3644L39.433 16.7617ZM35.3289 8.05561C35.3446 7.73518 35.2966 7.41482 35.1877 7.11306C35.0788 6.81129 34.9112 6.5341 34.6945 6.2975C34.5085 6.09145 34.2815 5.92655 34.0281 5.81338C33.7746 5.70021 33.5003 5.64127 33.2228 5.64035H31.3338V10.4453H33.2228C33.4992 10.4453 33.7727 10.3881 34.026 10.2773C34.2793 10.1665 34.5069 10.0044 34.6945 9.80138C34.9117 9.56789 35.0799 9.29311 35.1888 8.99338C35.2978 8.69364 35.3454 8.37506 35.3289 8.05656M35.4645 16.5607C35.481 16.2422 35.4334 15.9236 35.3244 15.6239C35.2155 15.3241 35.0473 15.0494 34.8301 14.8159C34.6425 14.6128 34.4149 14.4507 34.1616 14.3397C33.9083 14.2287 33.6349 14.1713 33.3584 14.171H31.3338V19.1116H33.3584C33.6372 19.1103 33.9127 19.0498 34.1664 18.934C34.4201 18.8183 34.6463 18.6499 34.8301 18.4402C35.2788 17.9205 35.5065 17.246 35.4645 16.5607Z" fill="black"/>
<path d="M49.0968 22.8354C48.2852 22.8418 47.481 22.6803 46.7346 22.3613C45.2808 21.7348 44.1218 20.5758 43.4953 19.122C43.1761 18.3757 43.0147 17.5715 43.0212 16.7598V7.98828C43.0174 7.18119 43.1788 6.38185 43.4953 5.6394C44.1158 4.17822 45.2762 3.01277 46.7346 2.38587C47.481 2.06696 48.2852 1.90554 49.0968 1.91173H55.1705V5.85561H49.0968C48.8265 5.8531 48.5587 5.9088 48.3118 6.01892C48.0649 6.12903 47.8446 6.291 47.6658 6.4938C47.2816 6.89033 47.0684 7.4219 47.0722 7.97406V10.3637H52.741V14.2516H47.0722V16.7769C47.0684 17.3288 47.2816 17.86 47.6658 18.2562C47.8446 18.4591 48.0649 18.6211 48.3118 18.7312C48.5587 18.8413 48.8264 18.897 49.0968 18.8944H55.1705V22.8354H49.0968Z" fill="black"/>
<path d="M66.5631 5.85562V22.8354H62.514V5.85562H58.4648V1.91458H70.6123V5.85562H66.5631Z" fill="black"/>
</g>
<defs>
<clipPath id="clip0_409_4417">
<rect width="110" height="24.75" fill="white"/>
</clipPath>
</defs>
</svg>
