<svg width="120" height="80" viewBox="0 0 120 80" fill="none" xmlns="http://www.w3.org/2000/svg">
<path d="M60.0694 65.2345C49.5865 65.2345 39.5201 63.013 30.009 58.6393C29.5925 58.431 29.3148 58.0145 29.2454 57.598C27.7875 44.6852 26.399 33.3692 25.0106 24.0664C24.9411 23.511 25.2188 22.9556 25.7048 22.7474C36.1877 16.9852 48.0592 14 60 14C71.9408 14 83.8123 17.0546 94.2952 22.7474C94.7812 23.0251 95.0589 23.5804 94.9894 24.0664C93.6704 33.3692 92.2125 44.6852 90.7546 57.598C90.6852 58.0839 90.4075 58.5005 89.991 58.6393C80.8271 62.9436 70.4135 65.2345 60.0694 65.2345ZM30.7727 57.3203C30.7727 57.3897 30.7727 57.3897 30.7727 57.3203C30.7727 57.3897 30.7727 57.3897 30.7727 57.3203Z" fill="#231F20"/>
<path d="M40.7699 52.5995C40.3534 52.53 37.7847 52.1135 37.5764 48.9894C37.4376 47.601 37.7847 46.629 38.4095 45.9348C39.312 44.9629 40.8393 45.0323 40.8393 45.0323C40.8393 45.0323 40.9088 45.0323 40.9782 44.9629C41.0476 44.9629 40.9782 44.8934 40.9782 44.8934V41.7694C40.9782 41.7694 40.9782 41.6999 40.9088 41.6305C40.8393 41.5611 40.8393 41.6305 40.8393 41.6305C40.7005 41.6305 37.0905 41.2834 34.8689 43.5744C33.3416 45.1711 33.0639 46.9067 32.9945 48.5729C32.9251 50.0308 33.3416 52.1829 35.0078 54.1962C37.2293 56.7649 39.9368 56.8343 40.1451 56.8343H40.3534C40.3534 56.8343 40.4228 56.8343 40.4922 56.8343C40.5616 56.7648 40.5616 56.6954 40.5616 56.6954L40.7699 52.6689C40.7699 52.7383 40.7699 52.6689 40.7699 52.5995Z" fill="white"/>
<path d="M51.5297 50.239C51.4602 48.3646 51.3908 46.3513 50.9048 44.9629C50.2106 43.019 48.7527 41.4223 46.2535 41.7C42.6435 42.0471 41.8798 45.31 42.0186 50.239C42.1575 55.2375 43.546 58.3616 46.3923 58.7087C50.9048 59.2641 51.7379 55.1681 51.5297 50.239ZM47.156 55.5847C46.2535 55.5847 45.9758 53.016 45.8369 50.0308C45.6981 47.115 45.9064 45.1711 46.67 44.9629C47.156 44.824 47.6419 45.6571 47.8502 47.115C47.9891 47.9481 47.9891 48.9894 48.0585 50.0308C48.1279 53.2243 47.8502 55.5847 47.156 55.5847Z" fill="white"/>
<path d="M43.9633 25.2466L43.8939 23.2334C43.8939 22.678 43.8245 22.1226 43.8245 21.4978V21.4283C43.7551 21.4283 43.6856 21.4283 43.6162 21.4978C42.436 21.8449 41.3252 22.192 40.145 22.5391C37.6458 23.3722 34.1746 24.8995 31.8836 26.2186C31.7448 26.288 31.606 26.3574 31.606 26.6351C31.606 27.1211 31.6754 27.5376 31.6754 27.7459C31.6754 28.093 31.8142 29.3426 31.8836 29.8286C31.9531 30.1757 32.1613 30.1063 32.3696 30.0369C33.6192 29.3426 33.6887 29.3426 34.9383 28.7178L35.5631 39.4785C35.5631 39.5479 35.6325 39.5479 35.7019 39.5479L40.7698 39.4091C40.8393 39.4091 40.8393 39.3396 40.8393 39.3396L40.145 26.5657C41.3252 26.1492 42.5749 25.802 43.8245 25.4549C43.9633 25.4549 43.9633 25.3855 43.9633 25.2466Z" fill="white"/>
<path d="M79.3691 22.539L81.5907 31.0087C81.5907 31.0087 81.5907 31.0087 81.5907 31.0781L81.2436 39.2701C81.2436 39.409 81.3824 39.5478 81.5213 39.5478L85.9644 39.6867C86.1032 39.6867 86.1727 39.6172 86.2421 39.4784L86.7975 32.2583C86.7975 32.2583 86.7975 32.2583 86.7975 32.1889L89.505 26.4962C89.505 26.4268 89.505 26.3573 89.4355 26.3573L86.7975 25.2466C86.728 25.1771 86.6586 25.2466 86.5892 25.316L84.923 29.2731L83.7428 23.8581C83.7428 23.7887 83.6734 23.7193 83.604 23.7193L79.508 22.4002C79.4386 22.3308 79.3691 22.4696 79.3691 22.539Z" fill="white"/>
<path d="M85.8949 51.697H85.8255L83.6734 52.3912H83.6039C83.5345 52.3912 83.6039 52.3218 83.6039 52.3218L83.6734 49.6143C83.6734 49.6143 83.6734 49.6143 83.6734 49.5448L85.0618 49.1977H85.1313V49.1283L85.2701 46.6985V46.6291H85.2007L83.8122 46.7679C83.8122 46.7679 83.8122 46.7679 83.7428 46.7679V46.6985L83.8122 45.0323C83.8122 44.8935 83.8816 44.824 84.0205 44.824L86.1726 44.5464C86.242 44.5464 86.242 44.4769 86.242 44.4075L86.4503 41.7694C86.4503 41.7 86.3809 41.6306 86.3115 41.6306H81.313C81.2435 41.6306 81.1741 41.7 81.1741 41.7694L80.5493 56.4178C80.5493 56.4872 80.6187 56.5566 80.6882 56.5566C81.1741 56.4872 82.3543 56.0012 82.9097 55.7235C84.0899 55.2376 84.5065 55.0293 85.5478 54.4739C85.6172 54.4045 85.6867 54.3351 85.6867 54.2656L85.8255 51.7664C85.8949 51.8358 85.8949 51.7664 85.8949 51.697Z" fill="white"/>
<path d="M78.1199 21.9142C78.0505 21.9142 77.9811 21.8448 77.9116 21.8448C77.5645 21.7754 76.8703 21.5671 76.5926 21.4977C75.6207 21.22 74.6487 21.0117 73.6768 20.8035C73.052 20.6646 72.4272 20.5258 71.8024 20.4564C71.3164 20.3869 70.8304 20.3175 70.3445 20.2481C69.9974 20.1787 69.6502 20.1092 69.3031 20.1092C68.8866 20.0398 68.5395 19.9704 68.1229 19.9704C67.7758 19.901 67.3593 19.901 67.0122 19.8315C66.8733 19.8315 66.7345 19.8315 66.7345 20.0398C66.7345 20.4563 66.665 22.8862 66.665 23.6498C66.665 23.7887 66.7345 23.8581 66.8733 23.8581C67.4981 23.9275 68.4006 24.0664 69.0254 24.1358C69.3726 24.2052 69.6502 24.2052 69.9974 24.2746L69.7197 36.1461C70.3445 36.2849 71.0387 36.4932 71.7329 37.0486C72.8437 37.8122 73.6768 38.6453 74.1628 39.6172H74.857C74.857 39.6172 75.0653 39.6172 75.1347 39.5478C75.2041 39.4784 75.2041 39.3396 75.2041 39.3396L75.6901 25.5937C75.6901 25.5243 75.7595 25.5243 75.8289 25.5243C76.4538 25.6631 76.8009 25.7325 77.4257 25.8714C77.5645 25.9408 77.7728 25.9408 77.9116 26.0102C77.9811 26.0102 77.9811 26.0102 77.9811 25.9408C77.9811 25.802 77.9811 25.6631 77.9811 25.4549C78.1199 25.1077 78.1199 24.6912 78.1199 24.3441C78.1199 23.6498 78.1893 23.0945 78.1893 22.4002C78.1893 22.3308 78.1893 22.2614 78.1893 22.1919C78.2588 22.1225 78.2588 21.9837 78.1199 21.9142Z" fill="white"/>
<path d="M58.5424 43.0885C55.6266 43.3662 54.5852 41.7 54.5852 41.7C54.5852 41.7 54.0993 42.4637 53.1968 42.7414L53.6133 59.4724C53.6133 59.5419 53.6827 59.5419 53.6827 59.5419L58.1953 59.8196C58.2647 59.8196 58.2647 59.7501 58.2647 59.7501L58.1953 52.9466C58.1953 52.9466 58.1953 52.8772 58.1953 52.8078H58.3341L59.8614 52.7383C59.9309 52.7383 59.9308 52.7383 59.9308 52.6689V49.4755C59.9308 49.406 59.8614 49.3366 59.792 49.3366H58.2647C58.1953 49.3366 58.1258 49.2672 58.1258 49.1977V45.2406C58.1258 45.1712 58.1953 45.1018 58.2647 45.1018H60.5557C60.6251 45.1018 60.6945 45.0323 60.6945 44.9629V42.4637C60.0697 42.8108 59.3755 43.0191 58.5424 43.0885Z" fill="white"/>
<path d="M66.2478 41.6306H62.7072C62.6378 41.6306 62.5684 41.7 62.5684 41.7694V59.7501C62.5684 59.8195 62.6378 59.8195 62.6378 59.8195L67.2197 59.4724C67.2892 59.4724 67.2892 59.403 67.2892 59.403L67.428 52.8772C67.428 52.8077 67.4974 52.8077 67.4974 52.8077L69.0942 52.5995C69.1636 52.5995 69.1636 52.5301 69.1636 52.5301L69.233 49.3366C69.233 49.2671 69.1636 49.2671 69.1636 49.2671H67.5668C67.4974 49.2671 67.4974 49.2671 67.4974 49.1977L67.5668 45.2406C67.5668 45.1712 67.6363 45.1712 67.6363 45.1712H69.9967C70.0661 45.1712 70.1355 45.1017 70.1355 45.0323V44.2687C68.9553 43.991 67.428 43.0884 66.2478 41.6306Z" fill="white"/>
<path d="M79.4384 41.6306H74.5094C74.3705 42.5331 73.5374 43.7828 72.0795 44.1993L71.7324 58.6394C71.7324 58.7088 71.8018 58.7088 71.8018 58.7088C72.2184 58.6394 73.954 58.3617 74.5788 58.2228C75.5507 58.0146 78.1194 57.4592 78.8136 57.2509C78.8831 57.2509 78.883 57.1815 78.883 57.1121L79.0913 54.0574C79.0913 53.988 79.0219 53.9186 79.0219 53.988L76.5921 54.4045H76.5226V54.3351L76.7309 51.2805V51.2111H76.8003L77.7723 51.0028H77.8417V50.9334L77.9805 48.2953C77.9805 48.2953 77.9805 48.2258 77.9805 48.1564C77.9111 48.087 77.8417 48.1564 77.8417 48.1564H76.9392H76.8698V48.087L77.0086 45.3101C77.0086 45.2407 77.078 45.1712 77.1475 45.1712H79.2996C79.369 45.1712 79.4384 45.1018 79.4384 45.0324L79.5773 41.7695C79.5773 41.7 79.5079 41.6306 79.4384 41.6306Z" fill="white"/>
<path d="M46.5312 35.9379C46.7395 35.4519 47.5726 33.6469 50.3495 34.2023C53.8901 34.8965 54.8621 38.7148 54.8621 38.7148C54.8621 38.7148 55.2092 37.7429 55.9034 36.9098L52.224 20.1787C52.224 20.1787 52.224 20.1093 52.1546 20.1093C52.0851 20.1093 52.0157 20.1093 52.0157 20.1093C52.0157 20.1093 50.7661 20.2482 49.5164 20.4564C48.2668 20.6647 46.8784 21.0812 46.8784 21.0812C46.8784 21.0812 46.8089 21.0812 46.8089 21.1507C46.8089 21.2201 46.7395 21.2201 46.7395 21.2201L43.8237 39.4091C43.8237 39.4091 43.8237 39.4785 43.8237 39.5479C43.8932 39.6173 43.9626 39.6173 43.9626 39.6173H46.9478C46.3924 38.5065 46.0453 37.1181 46.5312 35.9379ZM49.0999 25.2466C49.0999 25.2466 49.0999 25.1078 49.1693 25.1078C49.2388 25.1078 49.3082 25.1078 49.3082 25.1078C49.3082 25.1078 49.5164 25.1078 49.5859 25.1078L49.6553 25.2466L50.419 31.0782C50.419 31.1477 50.419 31.1476 50.3495 31.1476L48.6139 31.2865C48.6139 31.2865 48.5445 31.2865 48.4751 31.2865V31.1476L49.0999 25.2466Z" fill="white"/>
<path d="M61.3888 31.0783C61.3194 32.6056 58.2648 33.7164 57.3623 34.0635C57.2234 34.1329 57.2234 34.2024 57.2928 34.3412L57.64 35.6602C58.1953 35.3826 58.8896 35.0354 59.8615 34.8272C60.9723 34.5495 62.6384 34.6189 63.6798 35.6602C64.5823 36.5628 64.5823 37.6735 64.5129 38.2289C65.8319 37.257 67.0121 35.8685 67.4981 33.8553C68.6089 28.7873 61.9442 26.4963 61.5277 24.2748C61.3194 23.0946 62.7773 22.6086 63.2633 22.4698C63.3327 22.4698 63.4021 22.3309 63.3327 22.2615L62.2913 18.7903C62.2913 18.7209 62.1525 18.6515 62.0831 18.6515C61.1111 18.9986 56.1126 20.7342 56.5986 24.8996C56.8763 27.746 61.4582 28.9262 61.3888 31.0783Z" fill="white"/>
<path d="M52.4327 40.5892C52.3633 40.5198 52.2939 40.5198 52.2244 40.4504C52.0856 40.381 52.0162 40.2421 51.9467 40.1727C51.8773 40.1033 51.6691 39.8256 51.5996 39.8256C51.1831 39.6173 51.1137 39.3396 51.0443 39.2702C50.9054 39.1314 50.7666 38.9925 50.6277 38.9231C50.5583 38.8537 50.4889 38.7842 50.4194 38.7148C50.2112 38.5066 49.3781 38.2983 48.8227 37.5346C48.7533 37.4652 48.7533 37.2569 48.6839 37.1875C48.6839 37.1181 48.6144 36.9098 48.545 36.8404C48.4756 36.7015 48.3367 36.6321 48.3367 36.4933V36.4238H48.4061H48.4756C48.7533 36.4238 48.9615 36.7015 49.1698 36.9792C49.2392 37.0487 49.3087 37.1181 49.3087 37.1875C49.5169 37.3958 49.6558 37.4652 49.864 37.5346C50.0029 37.604 50.1417 37.6735 50.2806 37.7429C50.35 37.8123 50.4889 37.8817 50.6277 37.9512C50.836 38.09 51.0442 38.2288 51.2525 38.4371C51.3219 38.576 51.4608 38.6454 51.5302 38.7842C51.6691 38.9925 51.8079 39.1314 52.0162 39.3396C52.155 39.4785 52.3633 39.6173 52.5021 39.6867C52.5716 39.7562 52.7104 39.8256 52.7798 39.895C52.7798 39.895 52.8493 39.9644 52.9187 40.0339C53.1269 40.1727 53.4741 40.5892 53.6129 40.5198C53.6823 40.5198 53.6823 40.4504 53.6823 40.3116C53.7518 39.8256 53.6823 39.3396 53.5435 38.9231C53.4741 38.7148 53.1269 37.8817 52.9881 37.6735C51.3914 35.3131 49.7946 35.1742 48.9615 35.3131C48.4756 35.3825 47.9896 35.799 47.7119 36.285C47.4342 36.9098 47.5731 37.604 47.8508 38.2288C48.1285 38.7148 48.4756 39.3396 48.8227 39.7562C49.4475 40.3116 50.0723 40.867 50.836 41.1446C51.1831 41.2835 51.5996 41.4918 52.0162 41.4918C52.2939 41.4918 52.9881 41.4918 53.1964 41.1446C53.2658 40.9364 52.7798 40.6587 52.4327 40.5892Z" fill="white"/>
<path d="M63.1926 37.1874C63.1232 37.118 63.0537 37.0485 62.9843 36.9791H62.8455C62.7066 36.9791 62.6372 37.2568 62.5678 37.3956C62.4983 37.4651 62.4983 37.4651 62.4289 37.5345C62.2901 37.6733 62.1512 37.7428 62.0124 37.8816C61.8735 38.0205 61.7347 38.1593 61.5958 38.2287C61.5264 38.2982 61.3876 38.3676 61.3181 38.3676C61.2487 38.437 61.1099 38.437 61.0404 38.5064C61.0404 38.5064 60.6933 38.6453 60.5545 38.6453C60.4851 38.6453 60.4851 38.6453 60.4156 38.7147C60.3462 38.7841 60.1379 38.9924 60.0685 39.0618C59.9991 39.1312 59.9991 39.2007 59.9297 39.2007C59.8602 39.2701 59.652 39.2701 59.5825 39.2701L59.3049 39.4089C59.0966 39.4784 59.0272 39.5478 58.8883 39.6866C58.68 39.8949 58.4023 40.0337 58.1941 40.1726C58.0552 40.242 57.9164 40.1726 57.7775 40.242C57.6387 40.3114 57.4999 40.4503 57.2916 40.4503C57.2222 40.4503 57.2222 40.4503 57.1527 40.4503C57.0833 40.4503 57.0139 40.3809 57.0139 40.3114C57.0139 40.1726 57.0139 40.0337 57.1527 39.9643L57.361 39.8255C57.4999 39.756 57.7775 39.6866 57.9164 39.6172C58.1941 39.4783 58.8883 38.8535 58.8883 38.8535C59.0966 38.7841 59.2354 38.7147 59.4437 38.5758C59.7214 38.437 59.9991 38.1593 60.2074 38.0205L60.7628 37.8122C61.1099 37.6039 61.5264 37.3262 61.7347 37.1874C61.8041 37.118 61.8735 37.0485 61.943 36.9791C62.2206 36.7708 62.4983 36.4931 62.4289 36.2849C62.1512 35.9378 61.5264 36.0072 61.1099 36.0072C60.2768 35.9377 59.4437 36.3543 58.6801 36.7014C57.9164 37.0485 57.1527 37.4651 56.6668 38.1593C56.3891 38.5064 56.1114 38.7841 55.9031 39.1312C55.8337 39.3395 55.2783 40.6585 55.6254 41.2139C56.1114 41.9776 57.4304 42.047 58.2635 41.9776C59.166 41.9082 59.9297 41.4222 60.7628 41.1445C61.5264 40.8668 62.0124 40.3808 62.6372 39.8255C63.0537 39.4089 63.262 38.923 63.262 38.2982C63.3314 37.8816 63.3314 37.4651 63.1926 37.1874Z" fill="white"/>
<path d="M72.4959 39.4089C72.2182 39.1312 71.9405 38.7147 71.5934 38.437C71.2463 38.1593 70.8298 37.951 70.4827 37.7428C69.9273 37.3956 69.233 37.2568 68.5388 37.1874C68.1917 37.118 67.8446 37.118 67.4974 37.1874C67.0809 37.2568 66.942 37.3262 66.7338 37.6734V37.7428C66.8032 37.8816 67.0115 37.8122 67.1503 37.8816C67.5669 38.0899 67.8446 38.5064 67.9834 38.5064C68.0528 38.5064 68.5388 38.7147 68.6082 38.7841C68.6776 38.8535 68.6776 38.8535 68.7471 38.923C68.8859 39.0618 69.0942 39.1312 69.3024 39.2701C69.5107 39.3395 70.4826 40.3114 70.5521 40.3114C70.6215 40.3114 71.3157 40.6585 71.7323 40.8668C72.01 41.0057 72.1488 41.2139 72.2182 41.3528C72.2182 41.4916 72.1488 41.5611 72.1488 41.6305C72.0794 41.6999 71.9405 41.6999 71.8017 41.6999C71.7323 41.6999 71.6629 41.6999 71.524 41.6305C71.2463 41.5611 71.1769 41.4222 71.038 41.2139C70.9686 41.0751 70.2744 40.7974 70.205 40.7974C69.9273 40.728 69.4413 40.1032 69.4413 40.1032C69.4413 40.1032 69.233 40.0338 68.8165 39.7561C68.6776 39.6866 68.4694 39.6172 68.4 39.5478C68.1917 39.4089 67.914 39.2007 67.7057 39.1312C67.6363 39.1312 67.2197 38.7147 67.1503 38.6453C66.9421 38.437 66.8726 38.437 66.6644 38.3676C66.5949 38.2982 66.4561 38.2287 66.3867 38.2287C66.3172 38.1593 66.3172 38.0205 66.2478 38.0205L66.1784 38.0899L66.109 38.1593C65.9701 38.437 66.0395 38.8536 66.109 39.0618C66.1784 39.4784 66.3867 39.8949 66.5949 40.1726C66.8726 40.5197 67.0809 40.8668 67.428 41.1445C67.7751 41.4222 68.0528 41.6305 68.4 41.8388C69.233 42.3942 69.8578 42.7413 70.8298 42.8107C71.3852 42.8801 71.8017 42.8801 72.2182 42.6024C72.5654 42.3941 72.9819 41.9082 73.1207 41.4916C73.4679 40.8668 72.9819 39.8949 72.4959 39.4089Z" fill="white"/>
</svg>
