<svg width="16" height="14" viewBox="0 0 16 14" fill="current" xmlns="http://www.w3.org/2000/svg">
<path d="M8.65573 10.9129C8.08066 11.5139 7.51056 12.105 6.94577 12.7006C6.74833 12.9093 6.52633 13.0247 6.24294 13.0086C6.04948 12.9976 5.9413 12.9064 5.8819 12.7095C5.44919 11.2686 5.01017 9.83116 4.57977 8.38877C4.53796 8.24884 4.47624 8.18083 4.34417 8.13704C3.32476 7.80306 2.30735 7.46124 1.2916 7.11479C1.1353 7.06138 0.977678 6.9916 0.84262 6.89297C0.633894 6.74129 0.603365 6.49383 0.790522 6.3158C0.963409 6.15166 1.16981 6.00852 1.38418 5.91737C2.63023 5.38755 3.88291 4.87483 5.13361 4.35748C8.30763 3.04255 11.4817 1.7287 14.656 0.413774C15.2596 0.163465 15.7235 0.515963 15.6608 1.21633C15.6207 1.66425 15.5125 2.10505 15.4252 2.54728C14.736 6.03914 14.0461 9.53136 13.3532 13.0225C13.1886 13.8514 12.6461 14.0679 12.0103 13.5648C10.9454 12.7227 9.88154 11.8778 8.81734 11.0343C8.76656 10.9948 8.7138 10.9567 8.65573 10.9129ZM6.51406 11.5834C6.52758 11.5796 6.54109 11.5758 6.5546 11.5724C6.5621 11.5377 6.57299 11.5036 6.57599 11.4693C6.6533 10.6292 6.73512 9.78954 6.8023 8.94798C6.81731 8.76055 6.88111 8.62753 7.0211 8.50131C8.13125 7.5018 9.23464 6.49586 10.3403 5.49219C11.5641 4.38081 12.7884 3.27058 14.0077 2.15467C14.0832 2.08589 14.1147 1.96875 14.1665 1.87352C14.0517 1.86105 13.9286 1.81457 13.8242 1.84178C13.682 1.87881 13.5473 1.96195 13.4204 2.04244C10.7193 3.75541 8.02053 5.4714 5.3176 7.18097C5.16485 7.27771 5.13632 7.35971 5.1945 7.52863C5.39378 8.10491 5.57505 8.68648 5.76308 9.26692C6.01341 10.0393 6.26374 10.8113 6.51406 11.5834Z" fill="white" fill-opacity="0.7"/>
</svg>
