<svg width="19" height="11" viewBox="0 0 19 11" fill="current" xmlns="http://www.w3.org/2000/svg">
<path fill-rule="evenodd" clip-rule="evenodd" d="M18.0305 0.453058H15.0554C14.808 0.453057 14.5806 0.587904 14.4637 0.804019C14.4637 0.804019 13.2771 2.97034 12.896 3.70001C11.8706 5.66288 11.2067 5.04666 11.2067 4.13568V0.994584C11.2067 0.447998 10.7597 0.00490209 10.2083 0.00490209H7.97152C7.35215 -0.04075 6.75312 0.234812 6.38838 0.733157C6.38838 0.733157 7.52421 0.551097 7.52421 2.06829C7.52421 2.4445 7.54375 3.52679 7.56156 4.43455C7.56844 4.70855 7.4022 4.95771 7.14517 5.05865C6.88813 5.1596 6.59487 5.0909 6.41061 4.88657C5.49504 3.62419 4.73665 2.2568 4.1519 0.814094C4.04936 0.593712 3.82675 0.452705 3.58193 0.453058C2.93674 0.453058 1.64566 0.453058 0.878931 0.453058C0.728006 0.45204 0.586208 0.524595 0.499617 0.647144C0.413026 0.769694 0.392694 0.926595 0.445228 1.06686C1.26599 3.29874 4.80157 10.3125 8.83708 10.3125H10.5356C10.9062 10.3125 11.2067 10.0147 11.2067 9.64727V8.6305C11.2067 8.36981 11.3629 8.13405 11.6042 8.03055C11.8456 7.92705 12.1259 7.9756 12.3175 8.15411L14.3506 10.0477C14.5332 10.2178 14.7743 10.3125 15.0248 10.3125H17.6945C18.9821 10.3125 18.9821 9.42673 18.2801 8.74132C17.7861 8.25895 16.0032 6.396 16.0032 6.396C15.6878 6.07202 15.6577 5.56841 15.9324 5.20979C16.5086 4.458 17.4512 3.22737 17.8509 2.70018C18.3973 1.9796 19.3862 0.453058 18.0305 0.453058Z" fill="white" fill-opacity="0.7"/>
</svg>
