<?xml version="1.0" encoding="utf-8"?>
<!-- Generator: Adobe Illustrator 24.2.1, SVG Export Plug-In . SVG Version: 6.00 Build 0)  -->
<svg version="1.0" id="Слой_1" xmlns="http://www.w3.org/2000/svg" xmlns:xlink="http://www.w3.org/1999/xlink" x="0px" y="0px"
	 viewBox="0 0 300 300" style="enable-background:new 0 0 300 300;" xml:space="preserve">
<style type="text/css">
	.st0{fill:none;}
	.st1{fill:#FFFFFF;}
</style>
<rect class="st0" width="300" height="300"/>
<g>
	<path class="st1" d="M43,139.3l-3.6,9c-0.2,0.5-0.3,0.8-0.3,0.9c0,0.3,0.3,0.6,0.8,0.7v0.4h-5v-0.4c0.5-0.1,0.8-0.3,0.8-0.8
		c0-0.1-0.1-0.4-0.3-1l-4.5-11.5c-0.2-0.6-0.4-1-0.6-1.2c-0.2-0.2-0.4-0.3-0.8-0.4v-0.4H35v0.4c-0.5,0.1-0.7,0.3-0.7,0.7
		c0,0.2,0.1,0.4,0.2,0.7l3.1,8.2l3.3-8.3c0.1-0.4,0.2-0.6,0.2-0.7c0-0.4-0.3-0.6-0.8-0.7v-0.4h5.6v0.4c-0.5,0.1-0.8,0.4-0.8,0.7
		c0,0.1,0.1,0.3,0.2,0.7l3.2,8.2l3.1-8.1c0.1-0.4,0.2-0.7,0.2-0.9c0-0.3-0.3-0.6-0.8-0.7v-0.4h5.4v0.4c-0.4,0.1-0.7,0.2-0.8,0.4
		c-0.1,0.2-0.3,0.6-0.6,1.2l-4.5,11.5c-0.2,0.5-0.3,0.9-0.3,1.1c0,0.4,0.3,0.6,0.8,0.7v0.4H46v-0.4c0.5-0.1,0.8-0.3,0.8-0.7
		c0-0.1-0.1-0.5-0.4-1L43,139.3z M61.7,143.5v4.3h10c0.2,0,0.4,0,0.5-0.2c0.1-0.1,0.2-0.3,0.3-0.6h0.4v4h-0.4
		c-0.1-0.3-0.2-0.5-0.3-0.6c-0.1-0.1-0.3-0.2-0.5-0.2H57.6v-0.4c0.3-0.1,0.5-0.2,0.6-0.3c0.1-0.1,0.2-0.3,0.2-0.5v-13.2
		c0-0.2-0.1-0.4-0.2-0.5c-0.1-0.1-0.3-0.2-0.6-0.3v-0.4h13.9c0.2,0,0.4-0.1,0.5-0.2c0.1-0.1,0.2-0.3,0.3-0.6h0.4v4h-0.4
		c-0.1-0.3-0.2-0.4-0.3-0.6c-0.1-0.1-0.3-0.2-0.5-0.2h-9.8v3.7H68c0.2,0,0.4-0.1,0.5-0.1c0.1-0.1,0.2-0.3,0.3-0.6h0.4v3.9h-0.4
		c-0.1-0.3-0.2-0.4-0.3-0.6c-0.1-0.1-0.3-0.2-0.5-0.2H61.7z M79.4,147.7H89c0.2,0,0.4,0,0.5-0.2c0.1-0.1,0.2-0.3,0.3-0.6h0.4v4h-0.4
		c-0.1-0.3-0.2-0.5-0.3-0.6c-0.1-0.1-0.3-0.2-0.5-0.2H75.3v-0.4c0.3-0.1,0.5-0.2,0.6-0.3c0.1-0.1,0.2-0.3,0.2-0.5v-13.2
		c0-0.2-0.1-0.4-0.2-0.5c-0.1-0.1-0.3-0.2-0.6-0.3v-0.4h4.9v0.4c-0.3,0.1-0.5,0.2-0.6,0.3c-0.1,0.1-0.2,0.3-0.2,0.5V147.7z
		 M106.7,144.9l2.2,3.2l-0.3,0.2c-0.2-0.2-0.4-0.3-0.5-0.3c-0.1,0-0.5,0.2-1.2,0.5c-1.3,0.8-2.4,1.3-3.3,1.5
		c-0.9,0.3-1.9,0.4-3.2,0.4c-2.4,0-4.5-0.6-6-1.8c-0.9-0.7-1.7-1.5-2.2-2.5c-0.6-1.1-0.9-2.4-0.9-3.8c0-1.9,0.6-3.5,1.7-4.9
		c1.7-2.1,4.2-3.1,7.5-3.1c1.2,0,2.3,0.1,3.2,0.4c0.9,0.2,2,0.8,3.3,1.5c0.6,0.4,1,0.5,1.2,0.5c0.1,0,0.3-0.1,0.5-0.3l0.3,0.2
		l-2.2,3.2l-0.3-0.2c0-0.1,0-0.2,0-0.3c0-0.2-0.1-0.4-0.3-0.6c-0.2-0.2-0.5-0.4-1-0.7c-1.3-0.7-2.8-1.1-4.3-1.1
		c-1.8,0-3.2,0.4-4.2,1.3c-1.3,1-1.9,2.4-1.9,4.1c0,1.7,0.6,3,1.9,4.1c1.1,0.9,2.5,1.3,4.2,1.3c1.5,0,2.9-0.4,4.3-1.1
		c0.5-0.3,0.8-0.5,1-0.7c0.2-0.2,0.3-0.4,0.3-0.6c0-0.1,0-0.2,0-0.3L106.7,144.9z M119.3,134.4c2.7,0,4.9,0.7,6.4,2.2
		c1.7,1.5,2.5,3.5,2.5,6c0,1.5-0.4,2.9-1.2,4.2c-1.6,2.5-4.1,3.8-7.7,3.8c-2.7,0-4.8-0.7-6.4-2.2c-0.9-0.8-1.5-1.7-2-2.8
		c-0.4-1-0.6-2-0.6-3.1c0-1.6,0.4-3,1.2-4.3C113.1,135.8,115.7,134.5,119.3,134.4 M119.3,137.1c-1.5,0-2.7,0.4-3.7,1.3
		c-1.2,1-1.8,2.4-1.8,4.1c0,1.7,0.6,3.1,1.8,4.1c1,0.9,2.2,1.3,3.7,1.3c1.5,0,2.7-0.4,3.7-1.3c0.6-0.5,1-1.2,1.3-1.9
		c0.3-0.7,0.4-1.4,0.4-2.1c0-1.8-0.6-3.2-1.7-4.2C122,137.5,120.8,137.1,119.3,137.1 M140.3,150.3l-5.7-10.8v9.6
		c0,0.2,0.1,0.4,0.2,0.5c0.1,0.1,0.3,0.2,0.6,0.3v0.4h-4.6v-0.4c0.3-0.1,0.5-0.2,0.6-0.3c0.1-0.1,0.2-0.3,0.2-0.5v-13.2
		c0-0.2,0-0.4-0.2-0.5c-0.1-0.1-0.3-0.2-0.6-0.3v-0.4h6v0.4c-0.4,0.1-0.5,0.3-0.5,0.6c0,0.1,0,0.3,0.1,0.5l4.2,8l4.3-7.9
		c0.2-0.4,0.3-0.6,0.3-0.8c0-0.3-0.2-0.5-0.5-0.5v-0.4h5.9v0.4c-0.3,0.1-0.5,0.2-0.6,0.3c-0.1,0.1-0.2,0.3-0.2,0.5v13.2
		c0,0.2,0.1,0.4,0.2,0.5c0.1,0.1,0.3,0.2,0.6,0.3v0.4h-4.9v-0.4c0.3-0.1,0.5-0.1,0.6-0.3c0.1-0.1,0.2-0.3,0.2-0.5v-9.6L140.3,150.3z
		 M157.4,143.5v4.3h5c0.5,0.9,1,1.8,1.7,2.6h-10.8v-0.4c0.3-0.1,0.5-0.2,0.6-0.3c0.1-0.1,0.2-0.3,0.2-0.5v-13.2c0-0.2,0-0.4-0.2-0.5
		c-0.1-0.1-0.3-0.2-0.6-0.3v-0.4h11.4c-0.8,0.8-1.4,1.6-2,2.6h-5.3v3.7h4c-0.1,0.6-0.2,1.2-0.2,1.8c0,0.2,0,0.4,0,0.7H157.4z
		 M190.8,144.7h-3.8c-0.3,0-0.4,0.1-0.5,0.2c-0.1,0.1-0.2,0.3-0.3,0.6h-0.4v-3.6h0.4c0.1,0.3,0.2,0.5,0.3,0.6
		c0.1,0.1,0.3,0.2,0.5,0.2h7.4v0.4c-0.3,0.1-0.4,0.2-0.6,0.3c-0.1,0.1-0.2,0.3-0.2,0.5v3.2c0,0.2,0.1,0.4,0.2,0.5
		c0.1,0.1,0.3,0.2,0.6,0.3v0.3c-2.9,1.7-5.8,2.5-8.6,2.5c-2.5,0-4.6-0.6-6.2-1.8c-2-1.5-3-3.6-3-6.3c0-2.5,0.9-4.5,2.7-5.9
		c1.7-1.4,3.9-2.1,6.7-2.1c0.9,0,1.7,0.1,2.5,0.3c0.8,0.2,1.7,0.4,2.7,0.8c0.5,0.2,0.9,0.3,1.1,0.3c0.2,0,0.4-0.1,0.6-0.3l0.3,0.2
		l-1.8,3.7l-0.3-0.2c0-0.3,0-0.4-0.1-0.5c-0.1-0.1-0.2-0.2-0.4-0.4c-0.5-0.3-1.1-0.6-2.1-0.9c-0.9-0.2-1.7-0.4-2.5-0.4
		c-1.6,0-3,0.5-4,1.4c-1.2,1-1.8,2.4-1.8,4.1c0,1.6,0.6,3,1.8,4c1.1,0.9,2.5,1.4,4.3,1.4c0.9,0,1.7-0.1,2.5-0.3
		c0.8-0.2,1.6-0.5,2.2-0.8V144.7z M201.1,143.9v5.2c0,0.2,0.1,0.4,0.2,0.5c0.1,0.1,0.3,0.2,0.6,0.3v0.4h-4.9v-0.4
		c0.3-0.1,0.5-0.2,0.6-0.3c0.1-0.1,0.2-0.3,0.2-0.5v-13.2c0-0.2-0.1-0.4-0.2-0.5c-0.1-0.1-0.3-0.2-0.6-0.3v-0.4h9.7
		c1.2,0,2.1,0.1,2.8,0.2c0.7,0.1,1.3,0.4,1.8,0.7c0.6,0.4,1.1,0.9,1.4,1.6c0.3,0.7,0.4,1.4,0.4,2.1c0,2.5-1.4,4-4.2,4.5l3,4.3
		c0.5,0.7,0.9,1.2,1.2,1.5c0.2,0.2,0.6,0.3,0.9,0.3v0.4h-5.6v-0.4c0.4-0.1,0.6-0.2,0.6-0.4c0-0.1-0.2-0.5-0.5-1l-3.2-4.6H201.1z
		 M201.1,141.4h5.3c0.8,0,1.3,0,1.6-0.1c0.3,0,0.6-0.1,0.9-0.3c0.6-0.3,0.9-0.9,0.9-1.7c0-0.8-0.3-1.4-0.9-1.7
		c-0.3-0.1-0.6-0.3-0.9-0.3c-0.3-0.1-0.8-0.1-1.6-0.1h-5.3V141.4z M224.1,134.4c2.7,0,4.9,0.7,6.5,2.2c1.7,1.5,2.5,3.5,2.5,6
		c0,1.5-0.4,2.9-1.2,4.2c-1.6,2.5-4.2,3.8-7.7,3.8c-2.7,0-4.8-0.7-6.4-2.2c-0.8-0.8-1.5-1.7-1.9-2.8c-0.4-1-0.6-2-0.6-3.1
		c0-1.6,0.4-3,1.2-4.3C217.9,135.8,220.5,134.5,224.1,134.4 M224.1,137.1c-1.5,0-2.7,0.4-3.7,1.3c-1.2,1-1.8,2.4-1.8,4.1
		c0,1.7,0.6,3.1,1.8,4.1c1,0.9,2.2,1.3,3.7,1.3c1.5,0,2.7-0.4,3.7-1.3c0.6-0.5,1-1.2,1.3-1.9c0.3-0.7,0.4-1.4,0.4-2.1
		c0-1.8-0.6-3.2-1.8-4.2C226.8,137.5,225.6,137.1,224.1,137.1 M251.4,135.9v8.7c0,1.7-0.3,2.9-0.9,3.7c-1.1,1.5-3.4,2.2-6.8,2.2
		c-2.5,0-4.4-0.4-5.7-1.2c-0.8-0.5-1.3-1.1-1.6-1.9c-0.3-0.8-0.4-1.7-0.4-2.8v-8.7c0-0.2-0.1-0.4-0.2-0.5c-0.1-0.1-0.3-0.2-0.6-0.3
		v-0.4h4.9v0.4c-0.3,0.1-0.5,0.2-0.6,0.3c-0.1,0.1-0.2,0.3-0.2,0.5v7.8c0,0.9,0,1.6,0.1,2c0.1,0.4,0.3,0.8,0.6,1.1
		c0.7,0.8,2,1.2,3.7,1.2c1.8,0,3-0.4,3.8-1.2c0.3-0.3,0.5-0.6,0.5-1.1c0.1-0.4,0.2-1.1,0.2-2v-7.8c0-0.2-0.1-0.4-0.2-0.5
		c-0.1-0.1-0.3-0.2-0.6-0.3v-0.4h4.6v0.4c-0.3,0.1-0.5,0.2-0.6,0.3C251.4,135.5,251.4,135.7,251.4,135.9 M258.7,144v5.1
		c0,0.2,0,0.4,0.2,0.5c0.1,0.1,0.3,0.2,0.6,0.3v0.4h-4.9v-0.4c0.3-0.1,0.5-0.2,0.6-0.3c0.1-0.1,0.2-0.3,0.2-0.5v-13.2
		c0-0.2-0.1-0.4-0.2-0.5c-0.1-0.1-0.3-0.2-0.6-0.3v-0.4h9.7c1.1,0,2,0.1,2.7,0.2c0.7,0.2,1.3,0.4,1.8,0.8c0.5,0.4,0.9,0.9,1.2,1.5
		c0.3,0.7,0.5,1.3,0.5,2.1c0,1.1-0.3,2-0.8,2.8c-0.5,0.7-1.1,1.2-1.9,1.4c-0.8,0.3-1.9,0.4-3.4,0.4H258.7z M258.7,141.4h5.2
		c1,0,1.8-0.1,2.2-0.3c0.3-0.1,0.5-0.4,0.6-0.7c0.2-0.3,0.2-0.7,0.2-1c0-0.4-0.1-0.7-0.2-1c-0.2-0.3-0.4-0.6-0.6-0.7
		c-0.4-0.2-1.1-0.3-2.2-0.3h-5.2V141.4z"/>
	<path class="st1" d="M68.2,166v-6.9h0.9v1c0.5-0.7,1-1.1,1.7-1.1c0.6,0,1,0.2,1.4,0.7c0.3,0.4,0.5,1,0.5,1.8c0,0.8-0.2,1.5-0.6,2
		c-0.4,0.5-0.9,0.8-1.5,0.8c-0.5,0-1-0.2-1.4-0.7v2.4H68.2z M69.1,162.9c0.4,0.5,0.8,0.7,1.3,0.7c0.4,0,0.7-0.2,0.9-0.5
		c0.2-0.4,0.3-0.9,0.3-1.5c0-1.2-0.4-1.8-1.1-1.8c-0.5,0-1,0.3-1.5,1V162.9z"/>
	<path class="st1" d="M81.5,164c-0.6,0.2-1.2,0.3-1.8,0.3c-0.9,0-1.5-0.2-2-0.7c-0.5-0.4-0.7-1.1-0.7-1.9c0-0.8,0.2-1.4,0.7-1.9
		c0.4-0.5,1-0.8,1.7-0.8c0.7,0,1.2,0.2,1.5,0.6c0.3,0.4,0.5,1.1,0.5,2v0.3H78c0.1,1.1,0.7,1.7,1.8,1.7c0.5,0,1-0.1,1.6-0.3V164z
		 M78.1,161.2h2.4v-0.1c0-0.9-0.4-1.4-1.1-1.4c-0.4,0-0.7,0.1-0.9,0.4C78.2,160.4,78.1,160.7,78.1,161.2"/>
	<path class="st1" d="M90.6,164c-0.5,0.2-1.1,0.3-1.6,0.3c-0.9,0-1.6-0.2-2-0.7c-0.5-0.5-0.7-1.1-0.7-2c0-0.8,0.2-1.5,0.7-1.9
		c0.5-0.4,1.1-0.7,2-0.7c0.5,0,1.1,0.1,1.6,0.3v0.8c-0.6-0.2-1.1-0.3-1.5-0.3c-0.5,0-1,0.2-1.3,0.5c-0.3,0.4-0.5,0.8-0.5,1.4
		c0,0.6,0.2,1.1,0.5,1.4c0.3,0.4,0.8,0.5,1.4,0.5c0.4,0,0.9-0.1,1.5-0.3V164z"/>
	<polygon class="st1" points="96.9,164.2 96.9,159.8 94.8,159.8 94.8,159.1 99.9,159.1 99.9,159.8 97.8,159.8 97.8,164.2 	"/>
	<path class="st1" d="M106.4,164.3c-0.7,0-1.3-0.2-1.8-0.7c-0.4-0.5-0.6-1.1-0.6-1.9c0-0.8,0.2-1.5,0.6-1.9c0.4-0.5,1-0.7,1.7-0.7
		c0.7,0,1.3,0.3,1.7,0.7c0.4,0.5,0.6,1.1,0.6,1.9c0,0.8-0.2,1.5-0.6,1.9C107.7,164,107.2,164.3,106.4,164.3 M106.4,163.6
		c0.4,0,0.8-0.2,1-0.5c0.2-0.3,0.4-0.8,0.4-1.4c0-0.6-0.1-1.1-0.4-1.4c-0.3-0.3-0.6-0.5-1-0.5c-0.4,0-0.8,0.2-1,0.5
		c-0.2,0.3-0.4,0.8-0.4,1.4c0,0.6,0.1,1.1,0.4,1.4C105.6,163.4,106,163.6,106.4,163.6"/>
	<path class="st1" d="M113.4,166v-6.9h0.9v1c0.4-0.7,1-1.1,1.7-1.1c0.6,0,1,0.2,1.3,0.7c0.3,0.4,0.5,1,0.5,1.8c0,0.8-0.2,1.5-0.6,2
		c-0.4,0.5-0.9,0.8-1.5,0.8c-0.5,0-1-0.2-1.4-0.7v2.4H113.4z M114.4,162.9c0.4,0.5,0.8,0.7,1.3,0.7c0.4,0,0.7-0.2,0.9-0.5
		c0.2-0.4,0.3-0.9,0.3-1.5c0-1.2-0.4-1.8-1.1-1.8c-0.5,0-1,0.3-1.5,1V162.9z"/>
	<path class="st1" d="M125.5,163.6c-0.5,0.5-1.1,0.7-1.7,0.7c-0.5,0-0.8-0.1-1.1-0.4c-0.3-0.3-0.4-0.6-0.4-1c0-0.5,0.2-1,0.7-1.3
		c0.5-0.3,1.1-0.5,1.8-0.5h0.6v-0.4c0-0.3-0.1-0.6-0.2-0.8c-0.2-0.1-0.4-0.2-0.8-0.2c-0.5,0-1.1,0.1-1.6,0.4v-0.8
		c0.6-0.2,1.3-0.4,1.8-0.4c0.6,0,1.1,0.1,1.4,0.4c0.3,0.2,0.4,0.7,0.4,1.3v2.1c0,0.3,0,0.5,0.1,0.6c0.1,0.1,0.2,0.2,0.4,0.2
		c0.1,0,0.2,0,0.3,0l0.1,0.5c-0.3,0.1-0.5,0.1-0.7,0.1C126,164.3,125.7,164,125.5,163.6 M125.4,163v-1.3h-0.3c-1.2,0-1.9,0.3-1.9,1
		c0,0.2,0.1,0.4,0.2,0.6c0.2,0.2,0.4,0.2,0.6,0.2C124.5,163.5,124.9,163.3,125.4,163"/>
	<polygon class="st1" points="131.5,164.2 131.5,159.1 132.5,159.1 132.5,161.2 134.7,161.2 134.7,159.1 135.6,159.1 135.6,164.2 
		134.7,164.2 134.7,161.9 132.5,161.9 132.5,164.2 	"/>
	<polygon class="st1" points="140.6,164.2 140.6,159.1 141.5,159.1 141.5,161.2 143.7,161.2 143.7,159.1 144.7,159.1 144.7,164.2 
		143.7,164.2 143.7,161.9 141.5,161.9 141.5,164.2 	"/>
	<path class="st1" d="M149.3,164.2v-5h0.9v1.9h0.3c1.4,0,2.1,0.5,2.1,1.5c0,0.6-0.2,1-0.7,1.3c-0.3,0.2-0.9,0.3-1.7,0.3H149.3z
		 M150.1,163.5h0.3c0.8,0,1.2-0.3,1.2-0.9c0-0.3-0.1-0.5-0.3-0.6c-0.2-0.1-0.5-0.2-0.9-0.2h-0.3V163.5z M153.2,159.1h0.9v5h-0.9
		V159.1z"/>
	<path class="st1" d="M158.6,164.2v-5h0.9v3.7l2.5-3.7h0.9v5H162v-3.7l-2.4,3.7H158.6z M159.2,156.8h0.6c0.1,0.5,0.4,0.7,1,0.7
		c0.5,0,0.9-0.2,1-0.7h0.6c0,0.4-0.2,0.8-0.5,1c-0.3,0.2-0.6,0.4-1,0.4c-0.4,0-0.8-0.1-1-0.4C159.4,157.6,159.2,157.3,159.2,156.8"
		/>
	<polygon class="st1" points="173.1,164.2 175,161.6 173.1,159.1 174.2,159.1 175.6,161 176.9,159.1 177.8,159.1 176.1,161.6 
		178,164.2 176.9,164.2 175.4,162.2 174,164.2 	"/>
	<path class="st1" d="M184.6,164.3c-0.7,0-1.3-0.2-1.7-0.7c-0.4-0.5-0.6-1.1-0.6-1.9c0-0.8,0.2-1.5,0.6-1.9c0.4-0.5,1-0.7,1.7-0.7
		c0.7,0,1.3,0.3,1.7,0.7c0.4,0.5,0.6,1.1,0.6,1.9c0,0.8-0.2,1.5-0.6,1.9C185.9,164,185.3,164.3,184.6,164.3 M184.6,163.6
		c0.4,0,0.8-0.2,1-0.5c0.2-0.3,0.4-0.8,0.4-1.4c0-0.6-0.1-1.1-0.4-1.4c-0.3-0.3-0.6-0.5-1-0.5c-0.4,0-0.8,0.2-1,0.5
		c-0.2,0.3-0.4,0.8-0.4,1.4c0,0.6,0.1,1.1,0.4,1.4C183.8,163.4,184.1,163.6,184.6,163.6"/>
	<path class="st1" d="M191,164.2v-0.7c0.3,0,0.4-0.1,0.6-0.2c0.1-0.1,0.2-0.3,0.3-0.6c0.2-0.7,0.3-1.7,0.3-3v-0.5h3.4v5h-0.9v-4.3
		h-1.6v0.1c0,1.4-0.2,2.5-0.5,3.2C192.2,163.8,191.7,164.2,191,164.2"/>
	<path class="st1" d="M200,165.3v-1.8h0.5c0.4-0.5,0.6-1.1,0.8-1.7c0.1-0.6,0.2-1.4,0.2-2.2v-0.4h2.9v4.3h0.9v1.8h-0.9v-1.1h-3.5
		v1.1H200z M203.4,163.5v-3.7h-1.1v0.1c0,1.3-0.3,2.5-0.9,3.6H203.4z"/>
	<polygon class="st1" points="209.6,164.2 209.6,159.1 210.5,159.1 210.5,162.9 213,159.1 213.8,159.1 213.8,164.2 213,164.2 
		213,160.5 210.5,164.2 	"/>
	<polygon class="st1" points="218.7,164.2 218.7,159.1 219.6,159.1 219.6,161.2 221.9,161.2 221.9,159.1 222.8,159.1 222.8,164.2 
		221.9,164.2 221.9,161.9 219.6,161.9 219.6,164.2 	"/>
	<polygon class="st1" points="228.1,164.2 228.1,159.1 232.2,159.1 232.2,159.8 229,159.8 229,164.2 	"/>
</g>
</svg>
