<svg xmlns="http://www.w3.org/2000/svg" viewBox="0 0 296 40" id="logo-wg" width="100%" height="100%"><path class="2f76c674-da3d-495f-96c3-5c7a0702e5a3" fill="none" d="M0 0h296v40H0z"></path><path class="94e8d340-44c3-4c73-a929-caa0969a6f69" d="M16.514 6.889l-4.383 11.03a4.322 4.322 0 00-.378 1.064c0 .429.341.734 1.033.9v.466H6.631v-.466c.638-.108.935-.425.935-.94a5.883 5.883 0 00-.378-1.234L1.705 3.6a4.8 4.8 0 00-.74-1.413A1.619 1.619 0 000 1.689v-.453h6.645v.453c-.587.12-.884.393-.884.824a2.477 2.477 0 00.233.915l3.8 10.119 4.079-10.168a3.616 3.616 0 00.263-.866c0-.436-.324-.717-.932-.824v-.453h6.938v.453c-.628.15-.942.473-.942.9a2.339 2.339 0 00.243.84l3.893 10.119L27.105 3.6a3.654 3.654 0 00.295-1.1c0-.426-.344-.694-1.02-.814v-.45h6.59v.453a1.855 1.855 0 00-.976.493 5.611 5.611 0 00-.709 1.418l-5.48 14.111a5.175 5.175 0 00-.388 1.323c0 .47.324.756 1.006.851v.466h-6.246v-.466c.665-.091.986-.395.986-.915a4.412 4.412 0 00-.432-1.26zm22.959 5.065v5.233h12.314a.955.955 0 00.654-.187 1.8 1.8 0 00.365-.692h.446v4.936h-.446a1.75 1.75 0 00-.365-.709 1.009 1.009 0 00-.655-.189H34.419v-.466a1.148 1.148 0 00.686-.356.942.942 0 00.2-.65V2.7a.947.947 0 00-.2-.66 1.38 1.38 0 00-.686-.354v-.45h17.04a.9.9 0 00.625-.2 1.39 1.39 0 00.385-.694h.439v4.921h-.439a1.312 1.312 0 00-.385-.684.849.849 0 00-.625-.192H39.473v4.521h7.762a1.007 1.007 0 00.655-.182 1.46 1.46 0 00.375-.713h.442v4.832h-.442a1.484 1.484 0 00-.375-.686.9.9 0 00-.655-.206zM61.3 17.186h11.76a.991.991 0 00.659-.186 1.76 1.76 0 00.358-.692h.449v4.936h-.449a1.716 1.716 0 00-.358-.709 1.049 1.049 0 00-.662-.189H56.226v-.466a1.2 1.2 0 00.7-.356 1.033 1.033 0 00.192-.65V2.7a1.038 1.038 0 00-.192-.66 1.449 1.449 0 00-.7-.354v-.45H62.2v.453a1.362 1.362 0 00-.7.341 1.025 1.025 0 00-.2.674zm33.47-3.417l2.66 3.988-.368.253a1.147 1.147 0 00-.638-.356 4.913 4.913 0 00-1.425.67 19.36 19.36 0 01-4.067 1.876 14.119 14.119 0 01-3.92.486 12.175 12.175 0 01-7.421-2.15 8.646 8.646 0 01-2.677-3.09 9.573 9.573 0 01-1.151-4.663A9.492 9.492 0 0177.8 4.738C79.84 2.182 82.919.886 87.032.886a13.283 13.283 0 013.9.5A18.931 18.931 0 0195 3.244a4.867 4.867 0 001.425.655 1.168 1.168 0 00.638-.353l.368.247-2.664 3.987-.4-.253a1.4 1.4 0 00.037-.382.983.983 0 00-.355-.743 6.389 6.389 0 00-1.249-.887 10.64 10.64 0 00-5.25-1.384 7.844 7.844 0 00-5.216 1.641 6.165 6.165 0 00-2.3 5.01 6.182 6.182 0 002.3 5.016 7.835 7.835 0 005.216 1.643 10.662 10.662 0 005.25-1.4 6.539 6.539 0 001.253-.864 1.067 1.067 0 00.355-.777 1.347 1.347 0 00-.037-.361zM110.264.886a11.2 11.2 0 017.924 2.71 9.484 9.484 0 013.11 7.318 9.416 9.416 0 01-1.5 5.125c-1.921 3.079-5.1 4.646-9.5 4.646a11.126 11.126 0 01-7.894-2.711 9.566 9.566 0 01-2.4-3.444 10.2 10.2 0 01.763-9.015Q103.581 1 110.264.886m.01 3.245a6.619 6.619 0 00-4.551 1.63 6.383 6.383 0 00-2.164 5.021 6.425 6.425 0 002.164 5.031 7.263 7.263 0 009.163 0 6.6 6.6 0 001.638-2.362 6.8 6.8 0 00.506-2.578 6.418 6.418 0 00-2.144-5.112 6.869 6.869 0 00-4.612-1.63m25.819 16.216l-7.056-13.214v11.742a.993.993 0 00.2.65 1.169 1.169 0 00.7.356v.466h-5.622v-.466a1.244 1.244 0 00.7-.356.972.972 0 00.189-.65V2.7a.967.967 0 00-.189-.652 1.516 1.516 0 00-.7-.354v-.458h7.364v.453a.733.733 0 00-.642.777 1.285 1.285 0 00.183.637l5.22 9.867 5.277-9.707a2.425 2.425 0 00.344-.933c0-.385-.216-.593-.672-.64v-.454h7.225v.453a1.471 1.471 0 00-.712.354 1.047 1.047 0 00-.193.652v16.18a1.053 1.053 0 00.193.65 1.22 1.22 0 00.712.356v.466h-5.98v-.466a1.342 1.342 0 00.7-.341 1.068 1.068 0 00.2-.665V7.133zm21.035-8.393v5.233h6.1a13.983 13.983 0 002.117 3.16H152.05v-.466a1.168 1.168 0 00.7-.356.908.908 0 00.2-.65V2.7a.914.914 0 00-.2-.66 1.4 1.4 0 00-.7-.354v-.45h13.971a13.823 13.823 0 00-2.4 3.15h-6.489v4.522h4.906a13.03 13.03 0 00-.189 2.242c0 .27.013.537.02.8zm40.942 1.514h-4.72a.959.959 0 00-.659.191 1.481 1.481 0 00-.351.709h-.453V9.914h.453a1.48 1.48 0 00.351.7.975.975 0 00.659.193h9.05v.446a1.6 1.6 0 00-.682.365.9.9 0 00-.21.665v3.921a.948.948 0 00.2.659 1.457 1.457 0 00.689.348v.363a21.325 21.325 0 01-10.538 3.11 12.267 12.267 0 01-7.593-2.2 9.128 9.128 0 01-3.68-7.7 8.974 8.974 0 013.3-7.31 12.53 12.53 0 018.258-2.588 15.9 15.9 0 013.086.307 22.449 22.449 0 013.3 1.03 4.329 4.329 0 001.357.365 1.125 1.125 0 00.706-.328l.375.226-2.228 4.568-.4-.2a1.778 1.778 0 00-.128-.668 2.132 2.132 0 00-.5-.507 8.581 8.581 0 00-2.519-1.1 12.153 12.153 0 00-3.12-.449 7.448 7.448 0 00-4.97 1.668 6.279 6.279 0 00-2.228 5.044 6.051 6.051 0 002.171 4.869 7.692 7.692 0 005.237 1.729 13.478 13.478 0 003.123-.37 10.229 10.229 0 002.674-1.006zm12.675-.927v6.347a1.061 1.061 0 00.2.652 1.29 1.29 0 00.7.341v.466h-5.973v-.466a1.21 1.21 0 00.7-.356.915.915 0 00.206-.637V2.7a.945.945 0 00-.206-.66 1.463 1.463 0 00-.7-.354v-.45h11.973a20.328 20.328 0 013.467.236 6.33 6.33 0 012.238.888 4.554 4.554 0 011.661 1.969 6.785 6.785 0 01.52 2.573q0 4.69-5.2 5.482l3.717 5.286a14.162 14.162 0 001.422 1.786 1.739 1.739 0 001.121.425v.466h-6.908v-.466c.466-.064.7-.243.7-.493a3.473 3.473 0 00-.651-1.205l-3.88-5.642zm0-3.15h6.455a13.685 13.685 0 002.016-.091 2.827 2.827 0 001.067-.334 2.137 2.137 0 001.067-2.076 2.149 2.149 0 00-1.067-2.076 3.06 3.06 0 00-1.067-.353 15.4 15.4 0 00-2.016-.073h-6.459zm28.284-8.5a11.277 11.277 0 017.944 2.71 9.5 9.5 0 013.1 7.318 9.439 9.439 0 01-1.5 5.125c-1.928 3.079-5.1 4.646-9.5 4.646a11.158 11.158 0 01-7.9-2.711 9.635 9.635 0 01-2.39-3.444 10.2 10.2 0 01-.706-3.748 9.87 9.87 0 011.476-5.267C231.424 2.5 234.6.96 239.028.886m.02 3.245a6.591 6.591 0 00-4.554 1.63 6.378 6.378 0 00-2.158 5.021 6.42 6.42 0 002.158 5.031 6.687 6.687 0 004.6 1.627 6.56 6.56 0 004.551-1.627 6.351 6.351 0 001.651-2.362 6.622 6.622 0 00.51-2.578 6.4 6.4 0 00-2.161-5.112 6.824 6.824 0 00-4.6-1.63m33.51-1.431v10.7a7.772 7.772 0 01-1.107 4.558c-1.36 1.81-4.139 2.721-8.36 2.721a13.694 13.694 0 01-6.969-1.475 4.528 4.528 0 01-1.989-2.316 10.507 10.507 0 01-.52-3.488V2.7a.93.93 0 00-.2-.66 1.417 1.417 0 00-.7-.354v-.45h5.99v.453a1.374 1.374 0 00-.709.341.911.911 0 00-.2.674v9.533a11.231 11.231 0 00.179 2.444 2.9 2.9 0 00.678 1.319c.9.939 2.431 1.435 4.605 1.435s3.7-.5 4.609-1.435a2.816 2.816 0 00.672-1.323 11.135 11.135 0 00.186-2.444V2.7a.946.946 0 00-.209-.66 1.4 1.4 0 00-.7-.354v-.45h5.642v.453a1.467 1.467 0 00-.7.354.979.979 0 00-.2.66m9.035 9.874v6.31a.946.946 0 00.193.652 1.294 1.294 0 00.7.341v.466h-5.969v-.466a1.222 1.222 0 00.7-.356.918.918 0 00.209-.637V2.7a.947.947 0 00-.209-.66 1.485 1.485 0 00-.7-.354v-.45h11.949a16.215 16.215 0 013.312.272 5.879 5.879 0 012.171.977 4.53 4.53 0 011.5 1.877A5.758 5.758 0 01296 6.889a5.707 5.707 0 01-1.033 3.393 4.8 4.8 0 01-2.384 1.776 13.068 13.068 0 01-4.126.52zm0-3.145h6.361a6.335 6.335 0 002.694-.4 1.79 1.79 0 00.79-.854 2.668 2.668 0 00.3-1.286 2.689 2.689 0 00-.3-1.256 1.889 1.889 0 00-.79-.856 6.255 6.255 0 00-2.694-.39h-6.359zM47.465 39.661v-8.454h1.121v1.17a2.386 2.386 0 012.033-1.319 1.981 1.981 0 011.664.827 3.611 3.611 0 01.611 2.215 4.024 4.024 0 01-.723 2.5 2.273 2.273 0 01-1.891.952 2.108 2.108 0 01-1.695-.844v2.958zm1.121-3.809a2.2 2.2 0 001.546.851 1.293 1.293 0 001.145-.653 3.383 3.383 0 00.415-1.83c0-1.453-.446-2.183-1.3-2.183a2.3 2.3 0 00-1.8 1.172zM63.836 37.153a6.563 6.563 0 01-2.151.392 3.381 3.381 0 01-2.454-.824 3.049 3.049 0 01-.851-2.34A3.435 3.435 0 0159.2 32a2.661 2.661 0 012.1-.942 2.251 2.251 0 011.891.79 3.809 3.809 0 01.6 2.4v.368h-4.21a2 2 0 002.262 2.09 5.63 5.63 0 002-.425zm-4.237-3.4h2.995v-.164c0-1.119-.459-1.666-1.394-1.666a1.363 1.363 0 00-1.09.476 2.378 2.378 0 00-.51 1.354M74.982 37.207a6.29 6.29 0 01-1.982.341 3.422 3.422 0 01-2.5-.848 3.177 3.177 0 01-.9-2.4 3.251 3.251 0 01.884-2.39 3.363 3.363 0 012.4-.854 6.821 6.821 0 011.982.307v.937A6.166 6.166 0 0073 31.913a2.073 2.073 0 00-1.594.648 2.473 2.473 0 00-.577 1.742 2.43 2.43 0 00.6 1.759 2.3 2.3 0 001.729.641 5.424 5.424 0 001.823-.381zM82.774 37.409v-5.344h-2.552v-.858h6.219v.858h-2.549v5.344h-1.118zM94.457 37.544a2.816 2.816 0 01-2.158-.859 3.488 3.488 0 01-.77-2.382 3.331 3.331 0 01.783-2.35 3.012 3.012 0 014.285 0 3.333 3.333 0 01.787 2.35 3.429 3.429 0 01-.787 2.382 2.753 2.753 0 01-2.14.859m0-.841a1.469 1.469 0 001.266-.641 3.519 3.519 0 000-3.511 1.6 1.6 0 00-2.539 0 2.977 2.977 0 00-.453 1.752 2.965 2.965 0 00.453 1.759 1.48 1.48 0 001.273.641M103.066 39.661v-8.454h1.134v1.17a2.376 2.376 0 012.036-1.319 1.948 1.948 0 011.651.827 3.547 3.547 0 01.613 2.215 4.024 4.024 0 01-.723 2.5 2.249 2.249 0 01-1.887.952 2.117 2.117 0 01-1.69-.852v2.958zm1.131-3.809a2.175 2.175 0 001.537.851 1.313 1.313 0 001.158-.653 3.476 3.476 0 00.409-1.83c0-1.453-.439-2.183-1.3-2.183a2.294 2.294 0 00-1.8 1.172zM117.942 36.66a3.2 3.2 0 01-2.043.851 2.1 2.1 0 01-1.411-.476 1.658 1.658 0 01-.547-1.229 1.791 1.791 0 01.864-1.555 3.809 3.809 0 012.266-.593h.685v-.54a1.261 1.261 0 00-.284-.932 1.468 1.468 0 00-.973-.26 4.32 4.32 0 00-2.019.547v-.983a6.92 6.92 0 012.249-.432 2.374 2.374 0 011.675.483 2.188 2.188 0 01.489 1.614v2.6a1.692 1.692 0 00.111.76.512.512 0 00.459.209 1.492 1.492 0 00.355-.061l.1.672a2.72 2.72 0 01-.851.179 1.1 1.1 0 01-1.124-.851m-.186-.726v-1.58h-.331c-1.533 0-2.31.427-2.31 1.261a.842.842 0 00.3.707 1.023 1.023 0 00.773.284 2.594 2.594 0 001.563-.675M125.309 37.409v-6.202h1.128v2.51h2.749v-2.51h1.134v6.202h-1.134v-2.841h-2.749v2.841h-1.128zM136.438 37.409v-6.202h1.111v2.51h2.758v-2.51h1.145v6.202h-1.145v-2.841h-2.758v2.841h-1.111zM147.1 37.409v-6.2h1.06v2.367h.388c1.719 0 2.569.618 2.569 1.864a1.712 1.712 0 01-.881 1.616 4.39 4.39 0 01-2.053.356zm1.06-.857h.348c.949 0 1.418-.366 1.418-1.082a.858.858 0 00-.331-.775 1.893 1.893 0 00-1.087-.253h-.348zm3.724-5.345h1.128v6.2h-1.128zM158.6 37.409v-6.2h1.084V35.8l3.029-4.588h1.06v6.2h-1.06v-4.537l-2.988 4.534zm.675-9.015h.706a1.273 1.273 0 002.4 0h.692a1.84 1.84 0 01-.6 1.239 1.912 1.912 0 01-1.29.456 1.869 1.869 0 01-1.283-.456 1.809 1.809 0 01-.618-1.239M176.36 37.409l2.309-3.129-2.299-3.073h1.408l1.708 2.286 1.567-2.286h1.127l-2.113 3.062 2.336 3.14h-1.391l-1.789-2.366-1.729 2.366h-1.134zM190.469 37.544a2.766 2.766 0 01-2.144-.859 3.48 3.48 0 01-.79-2.382 3.382 3.382 0 01.79-2.35 2.727 2.727 0 012.144-.895 2.686 2.686 0 012.14.895 3.334 3.334 0 01.79 2.35 3.43 3.43 0 01-.79 2.382 2.724 2.724 0 01-2.14.859m0-.841a1.49 1.49 0 001.276-.641 3.586 3.586 0 000-3.511 1.491 1.491 0 00-1.276-.625 1.475 1.475 0 00-1.27.625 3.5 3.5 0 000 3.511 1.474 1.474 0 001.27.641M198.316 37.409v-.857a1.051 1.051 0 00.682-.243 1.717 1.717 0 00.422-.777 13.493 13.493 0 00.4-3.707v-.618h4.163v6.2h-1.121v-5.342h-1.938v.086a9.654 9.654 0 01-.614 3.944 2.07 2.07 0 01-1.989 1.315M209.481 38.807v-2.255h.574A6.787 6.787 0 00211 34.46a12.777 12.777 0 00.273-2.763v-.483h3.527v5.338h1.134v2.255h-1.054v-1.4h-4.345v1.4zm4.187-2.255v-4.487h-1.357v.122a9.091 9.091 0 01-1.05 4.366zM221.241 37.409v-6.202h1.094v4.595l3.029-4.595h1.057v6.202h-1.057v-4.534l-2.995 4.534h-1.128zM232.447 37.409v-6.202h1.121v2.51h2.755v-2.51h1.124v6.202h-1.124v-2.841h-2.755v2.841h-1.121zM243.96 37.409v-6.202h5.069v.858h-3.944v5.344h-1.125z"></path></svg>